/* XPM */
static char *d53765ef66d045c1f5df1c6d6d45d7f7ghefh5NbAhAjHhti[] = {
/* columns rows colors chars-per-pixel */
"64 64 253 2 ",
"   c #1A3D00",
".  c #4C1803",
"X  c #531A01",
"o  c #5A1B01",
"O  c #561B08",
"+  c #421F1B",
"@  c #691D02",
"#  c #5A2409",
"$  c #48261A",
"%  c #5C2614",
"&  c #592A17",
"*  c #662506",
"=  c #782906",
"-  c #79320A",
";  c #632B15",
":  c #692A16",
">  c #642D1B",
",  c #742C18",
"<  c #69331B",
"1  c #77341A",
"2  c #572E23",
"3  c #53342C",
"4  c #583429",
"5  c #692D22",
"6  c #653423",
"7  c #6B3523",
"8  c #6C3A25",
"9  c #673729",
"0  c #6C3A2B",
"q  c #733523",
"w  c #743A24",
"e  c #7B3B24",
"r  c #763528",
"t  c #733C2B",
"y  c #7C3C2B",
"u  c #6A3C32",
"i  c #773C32",
"p  c #214302",
"a  c #254803",
"s  c #2B4D02",
"d  c #274B0C",
"f  c #284C0E",
"g  c #37590C",
"h  c #294C12",
"j  c #2A4B19",
"k  c #395823",
"l  c #6E421B",
"z  c #7A431D",
"x  c #436700",
"c  c #496B02",
"v  c #467200",
"b  c #4C7301",
"n  c #4E7A01",
"m  c #517600",
"M  c #517901",
"N  c #597C06",
"B  c #47691A",
"V  c #577919",
"C  c #7A4428",
"Z  c #684435",
"A  c #7A4636",
"S  c #734C30",
"D  c #52612A",
"F  c #6D5047",
"G  c #7A5548",
"H  c #7A635B",
"J  c #842D0A",
"K  c #8C2D0D",
"L  c #932E06",
"P  c #942D0D",
"I  c #873109",
"U  c #96350B",
"Y  c #94310D",
"T  c #9B320C",
"R  c #892E13",
"E  c #932E13",
"W  c #843414",
"Q  c #8C3214",
"!  c #873719",
"~  c #943214",
"^  c #973617",
"/  c #A63B0E",
"(  c #A63A14",
")  c #843B27",
"_  c #813D31",
"`  c #90441A",
"'  c #A9451A",
"]  c #B5471B",
"[  c #854529",
"{  c #944C29",
"}  c #9A562A",
"|  c #864735",
" . c #8C4D3B",
".. c #924D3A",
"X. c #8D5339",
"o. c #93523D",
"O. c #97593C",
"+. c #B84B23",
"@. c #AB5429",
"#. c #BA5628",
"$. c #9D763A",
"%. c #B7682F",
"&. c #B96937",
"*. c #CE4F1A",
"=. c #CD541D",
"-. c #CC571C",
";. c #D2541E",
":. c #D6571D",
">. c #CD5523",
",. c #CE5924",
"<. c #C55628",
"1. c #CD552A",
"2. c #CC5A2B",
"3. c #D15523",
"4. c #D35924",
"5. c #D1512A",
"6. c #D2542A",
"7. c #D6542A",
"8. c #C75B33",
"9. c #D56427",
"0. c #D77138",
"q. c #E46E31",
"w. c #895046",
"e. c #8C5748",
"r. c #955443",
"t. c #985647",
"y. c #9B5B45",
"u. c #9C5C4B",
"i. c #9C5E52",
"p. c #A45A49",
"a. c #A25D4D",
"s. c #A45E53",
"d. c #A95E55",
"f. c #9C624B",
"g. c #8C6A50",
"h. c #976658",
"j. c #A6644A",
"k. c #A4634D",
"l. c #A56353",
"z. c #AA6453",
"x. c #A86758",
"c. c #B07351",
"v. c #9A6963",
"b. c #8D7469",
"n. c #95776C",
"m. c #98746A",
"M. c #A77668",
"N. c #A8726A",
"B. c #B7786A",
"V. c #CE7849",
"C. c #E77E45",
"Z. c #5C8100",
"A. c #5F8417",
"S. c #668A02",
"D. c #769806",
"F. c #6E9010",
"G. c #7B9A14",
"H. c #779525",
"J. c #718C30",
"K. c #7FA12D",
"L. c #7F8D44",
"P. c #8BA903",
"I. c #94AD01",
"U. c #9BAE00",
"Y. c #91AF0F",
"T. c #94B000",
"R. c #9BB401",
"E. c #91B00D",
"W. c #87A716",
"Q. c #8FAE1A",
"!. c #91AE14",
"~. c #92AE1A",
"^. c #92B013",
"/. c #9CBB14",
"(. c #91B01C",
"). c #A2BA03",
"_. c #A8BF06",
"`. c #A4BE11",
"'. c #8B9A3F",
"]. c #8EAD22",
"[. c #88A827",
"{. c #90AF28",
"}. c #99B624",
"|. c #92AE34",
" X c #A4BA35",
".X c #F4883F",
"XX c #ACC50A",
"oX c #B7C905",
"OX c #BBCF0D",
"+X c #BDD205",
"@X c #BAD00D",
"#X c #AAC418",
"$X c #BACF12",
"%X c #B7CD19",
"&X c #B7D112",
"*X c #B9D011",
"=X c #B7D11A",
"-X c #B7CE24",
";X c #B4D023",
":X c #BED036",
">X c #CCD909",
",X c #DEDE01",
"<X c #DFDE0C",
"1X c #C5D814",
"2X c #E0DE00",
"3X c #E1DF0E",
"4X c #E0DF17",
"5X c #DEE104",
"6X c #D9E10C",
"7X c #D5E110",
"8X c #E1E001",
"9X c #E2E01C",
"0X c #C5D031",
"qX c #DEE036",
"wX c #8D9452",
"eX c #A79B55",
"rX c #98AC52",
"tX c #AAB253",
"yX c #998867",
"uX c #958A6F",
"iX c #A68777",
"pX c #B58676",
"aX c #B19670",
"sX c #98A567",
"dX c #AFB06E",
"fX c #D88351",
"gX c #F08C4D",
"hX c #E98B56",
"jX c #F59154",
"kX c #C38575",
"lX c #B9C573",
"zX c #C5D34A",
"xX c #D1D453",
"cX c #CCCF76",
"vX c #AF9087",
"bX c #B8AA8D",
"nX c #D29D93",
"mX c #CCAC93",
"MX c #CDB4A7",
"NX c #CECE8D",
"BX c #F2DE8F",
"VX c #D5C8B6",
"CX c #E4D2B3",
"ZX c #DBC9C5",
"AX c #DBD8C8",
"SX c #E7D3C7",
"DX c #E8DBD7",
"FX c #F2DCD5",
"GX c #EFE0D4",
"HX c #F5E5DA",
"JX c #ECDDE0",
"KX c #F4EBE6",
"LX c #F9EBE5",
/* pixels */
"f h h h h h f g V V V V B f h h d f h h f h h h h h h h h h h h h h h j j h h h h h h j h h p J.].^.E.Y.Y.Y.E.Q.H.p f h h p p H.",
"f h h h h h h f B B g g g h f f h h j j p p h h h h h h h h h j j j j j h f h k k h p p j h p K.(.E.E.Y.Y.!.!.!.Q.N p p s c s G.",
"h f d f h h h h d d d h h h d f h h p s B B s p f h h h h h h h p p p h D uXvXg.F G iXwXp p s {.^.E.Y.Y.Y.!.!.!.!.].g B |.{.{.].",
"f d d f f h h h h h h h j j h h h s c [.].].[.N p h h h h h p s N N b yXn.G e.e.A 9 & 4 dXa c {.^.E.!.!.Y.Y.!.!.!.Q.G.{.].Q.~.Q.",
"f d f f f h h h h h h h j j h f s c {.^.E.E.^.{.J.p h j j f s [.{.{.aXv.h.N.i.l.u.| 0 2 G |.N ].^.^.!.!.!.!.!.!.!.!.!.!.!.!.!.!.",
"f d d f f f h h h h h h f f f s s [.(.^.^.^.^.(.{.N p j j p F.{.(.eXm.nXx.u.l.u.x.| i 2 4 VXrX^.^.^.!.!.!.!.!.!.!.!.!.!.!.!.!.!.",
"f d d f f f h h h j j h f s f s N Q.(.^.^.^.^.(.(.[.s j j s [.(.(.yXg.nXB.l.k.p.z.t.t u + ZXcX^.^.^.!.!.!.!.!.!.!.!.!.!.!.!.!.!.",
"f d d f f f h h j j j h s s d s W.!.!.!.^.E.Y.!.!.].V   j g W.Y.!. XyXG B.kXz.z.a.s.i u 3 ZXdX!.!.!.!.!.!.!.!.!.!.!.!.!.!.!.!.!.",
"f d s s a a f h h a s g V V s c ].!.!.!.E.E.E.E.Y.Q.F.  j g ].E.!.(. XdXh.h.B.d.d.s.A 9 3 DXlX!.!.!.!.!.!.!.!.!.!.!.!.!.!.!.!.!.",
"f s a x m g a f j f c [.].].W.W.!.!.!.!.Y.E.E.Y.Y.Q.[.s h g {.E.!.!.^. XdXA B.d.s.x.i 2 H HXdX!.!.!.!.!.!.!.!.!.!.!.!.!.!.!.!.!.",
"f s N |.|.{.H.g a a [.!.!.Y.Y.!.!.!.!.!.^.E.Y.Y.Y.!.].x   s W.E.!.!.!.].dXA B.s.d.t.u 3 bXAXtX!.!.!.!.!.Q.Q.Q.Q.!.!.!.!.!.!.!.!.",
"  V {.Q.Q.Q.].|.s c Q.^.!.!.!.!.~.~.!.!.!.!.Y.Y.Y.}.tXwXsXbXbXbXbXmXNXaXG h.B.x.i.G 4 F sXdX].!.!.!.!.Q.Q.Q.W.].Q.!.!.!.!.!.!.!.",
"a K.Q.E.Y.!.!.~.H.H.Q.Y.!.!.!.~.~.~.!.!.!. XtXaXiXm.v.v.v.v.v.v.h.e.e.A >  . .| A 2 Z bXsXsXW.!.!.!.Q.Q.S.Z.m Z.D.Q.Q.!.!.Q.Q.Q.",
"c {.Q.Y.!.!.!.~.].].!.!.!.!.!.~.~.!. XtXyXn.M.M.pXM.N.B.x.x.x.u.x.f.u.k.l.| 1 % & . 4 MXsXA.D.!.!.Q.].Z.m m m m m W.Q.!.!.Q.].D.",
"N (.!.!.!.!.!.~.!.!.Q.Q.Q.Q.!.!.tXaXM.pXpXN.r.| r.t.a.a.p.l.u.| u.l.z.z.a.z.a.a.A < & $ Z bX'.Q.Q.Q.Z.m b b b m m S.Q.!.Q.W.Z.m ",
"S.(.!.!.!.!.!.^.!.Q.].G.G.Q.tXiXM.B.B.f... .| q ..p.z.j.p.z.y.e  .i.z.d.d.z.t.r.f. .8 6 & $ b.lX].S.b M M M M M M S.~.~.D.M M M ",
"Q.Q.!.!.!.!.^.^.(.W.N b wXyXpXpXX.X.| y o.t.k.e ) k.y.z.a.z.z.| , t.r.r.p.a.u.y t.f.A 8 0 9 2 Z vXJ.M S.M M n n M M (.S.b M M M ",
"Q.!.!.!.!.!.!.Q.].S.N yXM.pXx.O.1 1 o.y.u.u.a.o.: o.z.k.a.r..._ : q r.u.l.l.a.| w y.l.t 7 8 0 0 4 F dX-X`.S.v n n S.S.b m m m m ",
"!.!.!.!.!.!.!.Q.W.L.v.pXM.t.| y e , k.z.z.x.l.t.1 [ r.| C y | u.C : k.l.u.a.k.a.e y k.o.r r r 0 9 2 3 b.0X`.b n n n n n M M m m ",
"!.!.!.!.!.!.!.(.eXh.B.f..._ _ u.o.e a.u.a.a.z.u.e : 1 [ r.k.f.l.O.; [ f.k.k.z.a.O., | k.y 1 < 5 6 A u 2 F zXM n n n n n n n M m ",
"!.!.!.!.!.!.!.aXg.x.O.[ 1 r.s.x.u.1 | x.l.o.| e e : C j.j.k.k.k.f.C < f.l.y.y...| , ; w > ; ; 0 0 6 0 u 2 4 wXn n n n M M M M M ",
"Q.!.!.!.!.!.eXh.x.[ 1 [ j.s.d.d.l. .C r.y e | y.k.| , o.j.k.k.y.k.O.: C y < 1 1 e | e q  .C 7 7 0 i i 0 0 2 4 wXn n M b b b M n ",
"Q.Q.Q.!.!.eXm.M.| y | j.u.l.x.d.l. ., y  .l.l.l.l.y.) | a.k.k.k.| [ : : e r.u.a.l.l. .< t 8 6 t i 5 r 7 y t 9 3 J.b S.Q.}.D.M M ",
"Q.].].].tXb.M.e.r.y.o.y.l.u.x.s.r.| ....z.s.a.l.a.x..._ l.t._ y | o.y.y _ s.a.a.l.a.k.| % 8 9 0 0 7 e r > 7 0 2 F }.;X%X%X;XD.b ",
"G.F.S.H.b.pXi.l.s.z.y.u.l.u.l.y.t.t.r. .r.t.u.u.u.l.i.w._ | w.i.l.l.l.t.r r.x.s.z.a.l.r.> O % % & 7 q r q ; > Z $ uX*XOXOX%X}.b ",
"m m b yXM.M.f.z.j.p.....[ 1 1 , * * # o # : : : : < q q 7 i w.e.r.t.l.s.w.| t.s.t. .| y ; O % t 0 0 7 w w : ; 0 4 3 ZX%XOX%X}.b ",
"m b J.h.kXy.z.{ ) ! - = = J - - J J = = = @ @ o o o X . . # % % < < t A w.y y | |  .| A y % % 7 0 0 7 w w < % % Z $ b.LX1X%X!.b ",
"b b sXe.x.j.[ - - &.V.8.8.8.#.#.8.8.8.#.#.#.@.@.` ` - = * # X . . X # ; < ; ; w C A 8 7 t 7 % % 7 0 t 8 w w ; . 9 9 3 SX0X=XD.v ",
"b b yXG x.| { { @.hXC.2.<.<.<.2.-.-.>.>.>.2.2.2.2.<.#.+.' ' U I = * o X . X # > < 8 8 6 9 0 9 & 6 6 7 > ; < ; # % 6 2 iXLX:XM n ",
"b m '.F G f.j.I V.hX9.-.4.3.>.-.:.:.:.:.;.3.3.3.3.3.3.,.2.<.<.+.' Q J W = * o . # # < t 8 0 0 6 % % & > > ; ; ; O & 4 Z HX Xb n ",
"b m }.cXb.e.[ ` hXq.-.:.4.;.7.7.3.,.3.3.6.3.3.7.7.3.3.3.6.>.6.6.2.1.+.' ^ J - 1 * X . X ; 7 9 7 > % 6 t t 7 t w ; ; 6 4 VXrXN S.",
"m S.;X0X0XxXO.%.jX9.-.-.-.3.7.5.6.>.>.3.6.6.6.6.7.7.3.6.6.6.6.6.*.7.7.<.1.+.^ Q W W , # o O ; 7 t 7 7 0 9 0 t t q O 9 & vXAX}.;X",
"b S.;X@X@X0Xz V.gX9.-.-.4.3.6.6.6.3.3.3.6.6.3.3.3.3.3.3.3.3.3.6.7.5.6.>.,.<.+.+.( E ~ Q W * o X o < 8 9 0 0 0 > : O O & g.LXzX%X",
"b M #X*X@XxXz fXC.:.-.>.4.3.6.6.3.3.3.3.3.3.3.3.3.3.3.3.3.3.3.6.7.5.6.>.,.-.-.<.<.] ( P R W 1 = * X X 7 t 6 > 5 > q > & F KXzX$X",
"b c I.=X@XeX` hXq.;.>.>.6.;.6.6.3.3.3.3.3.3.3.3.3.3.3.3.3.3.3.6.7.6.6.>.-.-.,.>.6.1.+.( ^ Q ! ! ! , * X O < w 7 7 t 7 2 F KXzX$X",
"S.c N ;X$Xg.} jXq.;.>.>.3.-.3.6.3.3.3.3.3.3.3.3.3.3.3.3.3.3.3.6.6.6.>.>.-.-.-.>.>.6.2.<.' Y J ! Q ! ) , o X # < 8 7 0 4 F LXzX$X",
"].S.b !.;XS %.jXq.;.>.>.3.-.3.3.3.3.3.3.3.3.3.3.3.3.3.3.3.3.3.3.3.3.>.>.>.-.-.:.3.3.>.1.<.' Y ~ ^ K W ! ! , o X > 0 u 4 H LXzX$X",
"F.S.n N -XC &.jX9.;.6.1.:.;.3.6.3.3.3.3.3.3.3.3.3.3.3.3.3.3.3.3.3.:.3.>.>.>.3.:.;.3.3.>.2.+.( P P ^ ^ K W ! * # % 9 u $ vXHXzX$X",
"b b n v G.l &.gX9.;.6.<.-.-.3.3.3.3.3.3.3.3.3.3.3.3.3.3.3.3.3.3.:.:.>.>.>.3.3.:.*.4.3.>.1.+.T P ^ P K K Q W @ * > 2 4 Z ZXCX%X$X",
"n n M n A.l &.gX9.:.6.<.-.-.3.:.3.3.3.3.3.3.3.3.3.3.3.3.3.3.3.3.:.:.3.>.>.6.3.3.3.:.-.>.<.( P ^ E ~ ^ K Q - o : t 4 3 vXJXzXOXOX",
"v v v v V C %.gXq.:.6.>.4.;.-.3.3.3.3.3.3.3.3.3.3.3.3.3.3.3.3.3.:.:.3.6.6.>.>.3.4.-.,.2.] T P E E ^ K Q W * o 7 9 3 vXKX-XOXOX@X",
"/./.T.D.G.S } jXq.;.6.>.4.:.:.3.3.3.3.3.3.3.3.3.3.3.3.3.3.3.3.3.3.3.3.6.6.6.6.>.>.>.,.+./ Y ~ E E E Q ! 1 . & G b.ZXDXOXOXOXOXOX",
"&X@X*X=X;Xg.W hXC.;.,.>.>.4.3.3.3.3.3.3.3.3.3.3.3.3.3.3.3.3.3.3.3.3.3.6.6.6.6.>.<.2.<.' U Y ~ Q E E ! ! # . bXHXGX-XOXOXOXOXOXOX",
"&X@X@X@X*XtX: fXgX:.,.3.>.3.3.:.3.3.3.3.3.3.3.3.3.3.3.3.3.3.3.3.3.3.6.6.6.6.>.>.2.2.+.U K K Q ~ E ~ W 1 . Z FXNXOXOXOXOXOXOXOX@X",
"&X@X@XOX@X0X< &.jX9.-.3.6.6.-.3.3.3.3.3.3.3.3.3.3.3.3.3.3.3.3.3.3.6.6.3.3.3.6.1.2.+.( Y ~ Q Q ~ ^ W ) % $ VXDXOXOXOXOXOXOXOX*X*X",
"=X@XOXOX@X*Xg.` jXq.-.>.6.6.3.-.3.3.3.3.3.3.3.3.3.3.3.3.3.3.3.3.6.6.3.3.:.3.6.2.<.( P ~ ~ Q Q ~ R ! : O iXLXOXOXOXOXOXOXOX$X=XoX",
"E.=X$XOX@X@X0X! 0..X9.>.7.6.6.-.3.3.3.3.3.3.3.3.3.3.3.3.3.3.3.3.6.3.3.:.:.:.>.<.( T P ~ ~ Q ~ Q ! ! X G LX:XOXOXOXOXOXOXOX$XXXoX",
"c /.%X@X@X@X@X$.@.gX0.4.3.5.6.3.>.>.>.3.3.3.3.3.3.>.>.>.6.6.3.3.6.6.;.-.:.3.<.] T P E ~ Q Q ~ W ! X S FXcXOXOXOXOXOXOXOXOXOXoX>X",
"M S.;X%X%X$XOX0Xz V.gX9.:.3.6.>.<.<.>.>.;.;.3.3.3.>.<.>.6.6.6.3.6.6.6.>.1.<.] T Y ~ Q Q Q K ~ ! & 3 SXCXOXOXOXOX$X$X$X$X*XoX+X6X",
"v c S.#X%X$X$X*XeX} hX0.-.4.>.6.>.>.6.3.:.3.;.-.3.>.>.>.6.6.7.7.7.6.>.1.1.+.T P ~ K K Q ! ! W * 3 VXDXOXOXOXOX*X=X=X;X=X=XoX>X5X",
"D.D.D.D.).$X$X*X$XC &.hX0.*.4.;.;.:.;.3.3.3.3.;.;.:.3.3.3.3.3.3.;.7.6.<.' U K Y K ~ ^ K ! ) : & MXKX$X@XOXOX*XXX).T.T.T.T.OX6X8X",
"&X=X%X%XXX$X$X$X*X0XC c.hX9.-.:.:.:.;.3.3.6.6.6.3.:.:.:.:.3.>.6.;.4.1.] U I K Y Y P K R ) O 9 MXGX`.*X@XOX&XXXT.oX>X>X>XU.>X5X8X",
"+X+X@X$X$X*X*X*X*X*XtXC fXfX9.:.:.:.3.3.6.1.6.6.3.3.:.:.>.>.1.<.,.<.' T L Y Y K P ^ ! 1 O G ZXDXI.XX$XOX$XXXT.1X6X6X5X6X>X6X8X8X",
"@X@X@XOX*X*X*X*X$X$X$XaXz V.C.4.-.;.3.3.6.6.6.6.6.3.3.3.,.2.2.<.] / T L Y Y ~ Q R ! : 6 vXFXZXI._.$XOX$X=XT.OX6X5X8X5X5X5X8X8X8X",
"*X@XOX@X*X*X*X*X*X$XOXOXaX[ &.C.9.3.>.>.6.6.3.3.3.3.3.>.<.+.+.] T Y L T ~ K Q ! e > G CXHX}./.#X$XOXOX$XXX).6X5X8X8X8X8X8X8X,X,X",
"=X$X$X*X*X*X*X*XOXOXOXOX$XmX[ @.fX0.2.>.>.:.;.;.;.3.3.<.] / T L P ~ ~ Q Q ! 1 < Z bXHXNXXX=X=X=X*XOXOXOXXXOX6X5X,X,X,X,X,X,X,X,X",
"I.*X*X*X*X*X*X*XOXOXOXOX$X).CXc.[ V.V.9.4.*.:.:.4.-.] / U U P P E ^ ! ! e % Z iXDXAX=X&X&X&X&X&X@X@XOXOXXX1X6X5X,X,X,X,X,X,X,X,X",
"I.oX*X*X*X*X*X*X*XOXOX$X).I.I.HXmXX.} V.0.,.-.>.] / K J W ! ! ! ) ! , % 0 iXSXGX}.=X&X&X&X&X&X&X@X@X@X@XXX1X,X5X,X,X,X,X,X,X,X,X",
"*X*X@X*X*X*X*X*X*X*XOXXXI.I.+X6X,XBXpX1 V.8.#.#.Q W 1 q 7 > : > % A h.mXFXDX1XI.R.=X&X&X&X&X&X@X@X@X@X@XXX1X6X,X,X,X,X,X,X,X,X,X",
"*X*X$X$X*X*X*X*X*X*X=XI.I.+X6X,X2X,X3XmX1 j.O.* w A h.m.n.N.vXbXMXSXFXcX<X,X>XI.R.=X&X&X&X&X&X@X*X@X@X@XXXOX5X5X,X,X,X,X,X,X,X,X",
"@X@XOX$X*X*X*X*X*X*XXXI.+X6X,X2X2X2X,X9Xn.Z Z iXSXFXFXDXDXDXDXCXxX9X5X5X2X,X@XI.).&X&X&X&X&X&X&X&X@XOX@XXXXX7X,X5X,X,X,X,X,X,X,X",
"+X@XOX$X*X@X*X*X*X*X).).6X5X,X2X2X2X,X<XqXFXSXGXZXNXxXqXqX%X7X4X,X,X5X5X2X,XoXP._.=X&X&X&X&X&X&X&X@XOX$X=X).+X7X,X,X,X,X,X,X,X,X",
"@X@XOX$X*X*X*X*X*X*X).+X5X,X2X2X2X2X2X,X,XxXxXxX4X,X,X6XoXU.oX6X<X,X5X5X,X6X_.P._.*X@X@X@X@X@X@X@X@XOXOX%X).).>X,X,X,X,X,X,X,X,X",
"@X$XOXOXOX@X@X@X@X@XoX1X,X,X,X2X2X2X2X2X8X8X5X5X8X5X6XoXoXXXT.1X6X8X8X8X6X>XI.R.$XOX$X@X@X@X@X@X@XOXOXOXoX>X6X,X,X,X,X,X,X,X,X,X"
};
