/* XPM */
static char *a0355b91ab1340dff1c943bbbaa6c25aHgZTPM7EXkm7JfJP[] = {
/* columns rows colors chars-per-pixel */
"64 64 240 2 ",
"   c #3C2A0B",
".  c #451C04",
"X  c #4B1D04",
"o  c #4A1E09",
"O  c #531F06",
"+  c #4C210C",
"@  c #59230A",
"#  c #532512",
"$  c #572A16",
"%  c #5A2916",
"&  c #5D2B19",
"*  c #473513",
"=  c #4E3511",
"-  c #57311D",
";  c #632309",
":  c #69290A",
">  c #76270C",
",  c #752A0E",
"<  c #7C2B0E",
"1  c #68330C",
"2  c #76340E",
"3  c #6B2B12",
"4  c #622E1D",
"5  c #7C2C10",
"6  c #6C3512",
"7  c #65311E",
"8  c #693718",
"9  c #773815",
"0  c #753C1C",
"q  c #5A3826",
"w  c #662F20",
"e  c #663121",
"r  c #6B3424",
"t  c #6C3728",
"y  c #793F23",
"u  c #713729",
"i  c #72392A",
"p  c #7A3E30",
"a  c #284A07",
"s  c #294C0C",
"d  c #2E5107",
"f  c #365809",
"g  c #294B12",
"h  c #284A15",
"j  c #304C11",
"k  c #375913",
"l  c #3F6109",
"z  c #55500B",
"x  c #6A440A",
"c  c #72510C",
"v  c #7A431A",
"b  c #466808",
"n  c #556C0D",
"m  c #4D7601",
"M  c #4D7900",
"N  c #527601",
"B  c #527A01",
"V  c #597B07",
"C  c #466815",
"Z  c #567817",
"A  c #756D13",
"S  c #7C4124",
"D  c #7C472A",
"F  c #6C4B34",
"G  c #784332",
"H  c #5A7427",
"J  c #786A21",
"K  c #6C5143",
"L  c #77594C",
"P  c #7A6255",
"I  c #852C0E",
"U  c #872E11",
"Y  c #863111",
"T  c #8E3113",
"R  c #913113",
"E  c #9C3815",
"W  c #A33C16",
"Q  c #A63F18",
"!  c #87471A",
"~  c #944C1C",
"^  c #AB4119",
"/  c #B5461B",
"(  c #BC4A1D",
")  c #907B0B",
"_  c #82452B",
"`  c #85482E",
"'  c #8F522D",
"]  c #834637",
"[  c #864A32",
"{  c #8A4C35",
"}  c #8C4C3B",
"|  c #8C5539",
" . c #92523D",
".. c #A75723",
"X. c #8F7334",
"o. c #B8642A",
"O. c #C24D1E",
"+. c #C64F21",
"@. c #C75522",
"#. c #CD5321",
"$. c #D15522",
"%. c #D55C26",
"&. c #D85F27",
"*. c #C56B2D",
"=. c #DD662B",
"-. c #C86F32",
";. c #D97936",
":. c #E16C2F",
">. c #EA7935",
",. c #8A5640",
"<. c #955343",
"1. c #985645",
"2. c #995747",
"3. c #9A5847",
"4. c #9D5A4B",
"5. c #A15C4E",
"6. c #A45F52",
"7. c #9B6448",
"8. c #8B6C5B",
"9. c #A66054",
"0. c #AA6657",
"q. c #AA6C57",
"w. c #AA7457",
"e. c #8D7469",
"r. c #B26F60",
"t. c #B97766",
"y. c #C17D6F",
"u. c #C17F70",
"i. c #5E8303",
"p. c #5F8010",
"a. c #628505",
"s. c #698B08",
"d. c #728B0F",
"f. c #749409",
"g. c #7B9B0C",
"h. c #668718",
"j. c #7C9C13",
"k. c #769619",
"l. c #7FA114",
"z. c #76952B",
"x. c #858B16",
"c. c #8D8D10",
"v. c #859915",
"b. c #8BAA09",
"n. c #95AF01",
"m. c #91AF0E",
"M. c #9BB503",
"N. c #99B406",
"B. c #92B10D",
"V. c #84A414",
"C. c #88A815",
"Z. c #8DAC15",
"A. c #83A31C",
"S. c #8DAC1A",
"D. c #91AE14",
"F. c #9BA815",
"G. c #91AE1A",
"H. c #92B013",
"J. c #9CB715",
"K. c #92B019",
"L. c #A3BB04",
"P. c #AABD03",
"I. c #A4BB08",
"U. c #AFB80F",
"Y. c #A4BE15",
"T. c #91902D",
"R. c #88A823",
"E. c #96B123",
"W. c #A7BE2A",
"Q. c #E8843C",
"!. c #F78B3E",
"~. c #ACC206",
"^. c #ACC40B",
"/. c #B9C905",
"(. c #B2C60B",
"). c #B4CA0C",
"_. c #BBCF0D",
"`. c #B6D00F",
"'. c #B9D00E",
"]. c #ACC517",
"[. c #AECA13",
"{. c #B4CC12",
"}. c #BACF12",
"|. c #B7CB1A",
" X c #B7D110",
".X c #B9D010",
"XX c #BED018",
"oX c #B5CA2C",
"OX c #C4D40B",
"+X c #C9D508",
"@X c #CBD50F",
"#X c #D6DB07",
"$X c #DDDE01",
"%X c #D3DD09",
"&X c #E0DE00",
"*X c #E0DF09",
"=X c #DEE003",
"-X c #D9E00A",
";X c #DEE113",
":X c #E0E001",
">X c #E0E11B",
",X c #C5D334",
"<X c #DDE328",
"1X c #E4E536",
"2X c #98847C",
"3X c #A3AB63",
"4X c #F88C41",
"5X c #C68274",
"6X c #B4C74C",
"7X c #B4C870",
"8X c #C9D750",
"9X c #E8E954",
"0X c #CCD96D",
"qX c #D8E479",
"wX c #EBEC6F",
"eX c #9C8A82",
"rX c #A69389",
"tX c #B4A399",
"yX c #BAB0A5",
"uX c #D09F87",
"iX c #C3B8B0",
"pX c #C9D88B",
"aX c #DBE68D",
"sX c #ECEF8F",
"dX c #CACDB4",
"fX c #DCE6AB",
"gX c #E7ECA7",
"hX c #EEF1AA",
"jX c #E7EEB9",
"kX c #F2F3BA",
"lX c #D4CDCA",
"zX c #D7D2CE",
"xX c #E1DBD1",
"cX c #E7EAC8",
"vX c #EFF1CF",
"bX c #E8E7D8",
"nX c #F3F4D7",
"mX c #ECEBE3",
"MX c #F0EDE0",
"NX c #F1F2E7",
/* pixels */
"s f C Z Z Z Z C k s g g s s g g g s s s g g g g g g g g g g g g g g g g h g g g g g g h h h h g g a C z.S.H.B.B.m.m.m.B.Z.R.h.f ",
"g s k C C k k k j g s s g g g g g s s s s g g g g g g g g g g g h h h h h g g g g g g a a a s h s a Z R.S.H.B.m.m.m.D.D.D.S.j.V ",
"g g g j g g g g g g g s g g s d f C C C f d a s g g g g g g g s a a a s g j * * *     H z.H C d a d Z R.H.B.B.B.m.m.D.D.D.D.Z.A.",
"g g g g h h h h h g g g s a f V k.A.A.k.k.Z f s g g g g g s d f Z V V z F { 1.1.] r % q iXdXz.h.f b h.R.H.H.D.D.D.D.D.D.D.D.D.S.",
"g g g g h h g h h g g s a f p.A.S.H.H.H.S.R.h.C s g g g g d C z.R.A.J 7.0.9.9.9.6.] i % P NX6XC.d.a.k.S.H.H.D.D.D.D.D.D.D.D.D.D.",
"g g g g h g g s s s s a d Z A.G.H.H.H.H.H.K.R.k.b s h h s b k.R.E.A q.uX0.6.6.6.9.<.i r q xX0XZ.Z.V.V.H.H.H.D.D.D.D.D.D.D.D.D.D.",
"g g g g h h g s a a a d b f.S.K.H.H.H.H.H.K.G.A.Z d g h s Z A.G.K.A 7.uX5X9.6.6.6.4.i t - zXpXm.H.D.D.H.H.H.D.D.D.D.D.D.D.D.D.D.",
"g g g g g g s d d d a f h.C.D.D.D.H.B.B.D.D.D.S.k.C a h k Z A.D.D.v.A ' r.5X0.6.6.6.p t - zXpXZ.D.D.D.D.D.D.D.D.D.D.D.D.D.D.D.D.",
"s s g g s d k Z Z Z b n k.S.D.D.D.H.B.B.m.m.D.Z.A.Z a h k h.S.D.D.E.G.v.c 7.t.6.9.6.p r q bX7XC.D.D.D.D.D.D.D.D.D.D.D.D.D.H.D.D.",
"f s g s f n k.A.A.A.k.j.C.D.D.D.D.D.B.B.B.m.m.D.S.h.f s k h.S.m.D.G.E.G.v.v t.9.9.6.p 4 P mXz.f.C.D.D.D.D.D.D.D.D.D.D.D.H.H.D.D.",
"h.C f a l k.C.D.D.Z.Z.Z.D.D.D.D.D.D.m.m.m.m.m.D.S.k.b d f h.C.B.H.H.H.C.d.8 t.9.9.3.i % tXdXV V j.C.D.D.D.D.D.D.D.S.S.S.S.H.D.D.",
"R.z.Z l V A.D.D.D.D.D.D.G.G.G.D.D.D.D.D.B.B.H.H.Z.j.V n n A d.x.x.x.v.d.x 7.t.6.6.] w K mX3Xm B s.V.Z.D.D.D.D.D.S.C.C.l.A.C.Z.Z.",
"D.S.k.k.k.S.D.D.D.D.D.G.G.G.G.D.D.D.D.H.Z.v.x.X.X.X.7.7.q.q.q.q.7.1.| S 8 { } } ] t - yXfXj.B m B f.C.D.D.D.S.C.j.s.a.i.i.s.g.C.",
"D.D.S.S.S.G.D.D.Z.Z.D.G.G.G.D.D.H.Z.v.x.X.w.w.t.t.t.r.r.0.0.9.6.9.9.9.6.4.} i 4 # + = T.oXH.a.m B s.V.Z.D.S.C.f.i.B N N N B a.j.",
"D.D.G.G.G.S.S.S.Z.D.D.D.D.D.H.C.x.X.w.t.y.t.1.`  .1.6.6.6.6.4._ 5.6.6.6.6.9.6.4.G 4 # + z x.g.B M i.j.S.S.C.s.V N m m m N N V s.",
"D.H.H.H.S.A.j.j.j.C.Z.D.H.b.x.X.w.y.t.9. .` ` 6  .6.6.6.6.9.6.0 [ 9.9.6.6.6.1.<.6.} i r & # z N M B f.S.C.s.B N B B B B B B B s.",
"D.H.K.C.g.a.B B V s.g.V.x.X.t.y. .<.[ _ { 3.6.y S 6.6.6.6.9.9.[ 6 <.<.<.5.9.4.y 3.6.} i i t & = z N f.V.f.V V s.s.i.B B M M B i.",
"Z.Z.S.j.a.B B B B B V J w.u.r.3.0 0 { 4.9.6.9.{ 1 1.9.9.5.1.{ S ; y <.4.6.6.9.[ 0 5.6.G u u i t & = n s.a.f.m.Y.Y.m.f.B m M B i.",
"Z.Z.C.d.V s.l.C.j.n D t.r.5.` 0 0 y 9.9.6.6.9.5.6 S 1.` y S { 3.S 6 4.9.6.9.9.5.0 _ 9.<.i u i i u r $ z d.Y.{.}.}.{.H.i.m M M B ",
"D.K.V.s.s.H.].].x.7.t.0.{ 0 _ 4. .6 4.6.6.9.9.4.0 ; 0 [ 1.6.9.9.<.1 [ 9.6.6.9.9. .6  .4.i e r r r u u & z 3X,X_._.}.].s.M M M M ",
"D.K.g.s.V.{._.c.7.r.3.y 0 <.6.9.6.0 } 9.6.1._ 0 S 1 S 9.6.6.6.6.6.S 6 4.9.6.1.} _ 1 1 y 7 4 4 r t u u u 4 q 3X8X'.}.].s.M M M M ",
"D.K.g.f.m.{.c.7.q.S 0 [ 5.9.6.6.9.[ S  .S 0 [ 3.9.{ 1 3.9.6.6.6.9.1.1 S _ 0 6 6 y ` 6 0 } u u u u u u u i 4 q yXaXXXJ.s.M M M M ",
"D.H.g.g.J.c.7.r.` 0  .9.6.6.6.6.9. .6 y  .5.9.9.6.5.0 ` 9.9.6.4.} S 6 ; S } 3.5.9.9. .1 y i u u u u u u t i 4 q lXgXJ.a.m M B V ",
"D.D.g.g.x.7.t.<.<.4.} 6.6.6.6.6.<.[ { { 9.9.9.6.6.9.3.S 5.3._ 0 D  .3.0 S 9.9.6.6.6.6.` @ e i u t t u u r r i 4 K mX7Xi.M B s.b.",
"C.D.V.f.X.5X9.6.9.9.4.5.9.6.6.4.<.1.1.{ <.1.1.3.4.5.6.} D _ } 4.9.9.9.3.6  .9.6.9.9.6.1.% + & & & 4 u u t % t u $ 2XMXz.i.g.J.[.",
"s.j.A.J t.r.6.6.6.4.<.} G i e 4 % # # # # # $ & 7 e e 7 r ] ,.<.1.4.5.6. .y 6.6.1.} ` y & o % t u u u u i 4 $ u r q lXdXK.].|.}.",
"B i.a.| y.6.6.<.D 8 1 1 2 2 2 5 5 5 , , : ; @ O X . . . o + # & 7 u p ] } y D [ { } } p u 4 + t u u u u u u # & i % 8.NX8X_._._.",
"B B n 7.r.4._ 0 2 o.;.@.#.$.$.$.$.$.$.#.#.+.( / ^ E Y , ; @ X . . o + % 4 7 & i p p i u u u % % u u u u u i e + t t - lXfX}._._.",
"m M z { 9. .<.[ ..4X>.$.$.$.$.$.$.$.$.$.$.$.$.$.$.$.#.O./ Q R < : @ X . . o $ e u u u u u u t % 4 i t r e 4 & + # r % 2XNXoX_._.",
"a.V n 8  .6.6.v ;.!.&.$.$.$.$.$.$.$.$.$.$.$.$.$.$.$.$.$.$.$.#.O./ W T < : @ X o + & r u u u u r # % % % & 4 7 4 + e 7 F mX0X_._.",
"J.Z.g.V c D D ! 4X>.$.$.$.$.$.$.$.$.$.$.$.$.$.$.$.$.$.$.$.$.$.$.$.#.O.^ E T U , ; X o # 4 t t r e % r i i i i i % % u - lXgX_._.",
"}.{.].E.v.a.z o.4X=.$.$.$.$.$.$.$.$.$.$.$.$.$.$.$.$.$.$.$.$.$.$.$.$.$.$.#./ W R T T , @ X + $ e i t t u u u u i t # e % rXvXXX_.",
"_._.'.|.].J.x ;.!.%.$.$.$.$.$.$.$.$.$.$.$.$.$.$.$.$.$.$.$.$.$.$.$.$.$.$.$.$.#./ E R R R U : O o # e u u u u t e & + # % e.nX,X_.",
"_._._._.'.F.! Q.>.$.$.$.$.$.$.$.$.$.$.$.$.$.$.$.$.$.$.$.$.$.$.$.$.$.$.$.$.$.$.$.#./ E R R R T , @ X # e u t 4 4 e r % 4 K MX,X_.",
"_._._._.'.) ~ !.>.#.$.$.$.$.$.$.$.$.$.$.$.$.$.$.$.$.$.$.$.$.$.$.$.$.$.$.$.$.$.$.$.$.O.Q R R R R T < @ o # e u i i u t 7 F mX8X_.",
"_._._._.'.A ..!.:.$.$.$.$.$.$.$.$.$.$.$.$.$.$.$.$.$.$.$.$.$.$.$.$.$.$.$.$.$.$.$.$.$.$.#.^ R R R R R T 5 @ o # r i u i 7 F MX8X_.",
"_._._._.).c o.!.=.$.$.$.$.$.$.$.$.$.$.$.$.$.$.$.$.$.$.$.$.$.$.$.$.$.$.$.$.$.$.$.$.$.$.$.#.Q R R R R R R T , O o r u u 4 L MX,X'.",
"_._._.'.(.c -.!.=.$.$.$.$.$.$.$.$.$.$.$.$.$.$.$.$.$.$.$.$.$.$.$.$.$.$.$.$.$.$.$.$.$.$.$.$.O.R R R R R R T R 5 o # t i % eXvXXX_.",
"}._._.'.U.x -.!.=.$.$.$.$.$.$.$.$.$.$.$.$.$.$.$.$.$.$.$.$.$.$.$.$.$.$.$.$.$.$.$.$.$.$.$.$.( R R R R R R R R ; # 4 4 t q lXaX_.}.",
"{.}._.'.U.x *.!.=.$.$.$.$.$.$.$.$.$.$.$.$.$.$.$.$.$.$.$.$.$.$.$.$.$.$.$.$.$.$.$.$.$.$.$.#.Q T R R R R R R U X 7 i r & eXnX,X_._.",
"J.{.}.'.U.x o.!.:.$.$.$.$.$.$.$.$.$.$.$.$.$.$.$.$.$.$.$.$.$.$.$.$.$.$.$.$.$.$.$.$.$.$.$.( R R R R R R T R : + r r t eXbX0X_._._.",
"f.B.{._.).c ..!.>.$.$.$.$.$.$.$.$.$.$.$.$.$.$.$.$.$.$.$.$.$.$.$.$.$.$.$.$.$.$.$.$.$.$.#.E T R R R R R R U X - L e.dXvX8X_._._._.",
"b.b.I._._.A ! !.>.$.$.$.$.$.$.$.$.$.$.$.$.$.$.$.$.$.$.$.$.$.$.$.$.$.$.$.$.$.$.$.$.$.$.^ R R R R R R R R : . rXMXjXqX,X_._._._._.",
"^.~.~.).'.c.2 Q.!.%.$.$.$.$.$.$.$.$.$.$.$.$.$.$.$.$.$.$.$.$.$.$.$.$.$.$.$.$.$.$.$.$.( R R R R R R R R U . F mXqX}._._._._._._._.",
"_._._._..XJ.1 *.4X=.$.$.$.$.$.$.$.$.$.$.$.$.$.$.$.$.$.$.$.$.$.$.$.$.$.$.$.$.$.$.$.+.E R R R R R R R T ; # iXjXXX_._.'._._._._._.",
"_._._._.{.Y.c ~ 4X>.$.$.$.$.$.$.$.$.$.$.$.$.$.$.$.$.$.$.$.$.$.$.$.$.$.$.$.$.$.$.#.W T R R R R R R R , o eXnX,X_._._._._._._._._.",
"_._._._.^.M.c.2 ;.!.%.$.$.$.$.$.$.$.$.$.$.$.$.$.$.$.$.$.$.$.$.$.$.$.$.$.$.$.$.$.^ R R R R R R R R U X P MX0X_._._._._._._._._._.",
"'._._.).I.M.I.A ..4X:.$.$.$.$.$.$.$.$.$.$.$.$.$.$.$.$.$.$.$.$.$.$.$.$.$.$.$.$./ R R R R R R R R T @ F xXaX}._._._._._._.'._._._.",
".X}.}.(.L.L.OXU.v ;.!.%.$.$.$.$.$.$.$.$.$.$.$.$.$.$.$.$.$.$.$.$.$.$.$.$.$.$.( R R R R R R R R T ; q lXfX].)._.'._._._.'._._.}.}.",
".X}.}.(.L.P.@X-X) ~ 4X:.$.$.$.$.$.$.$.$.$.$.$.$.$.$.$.$.$.$.$.$.$.$.$.$.$.( E R R R R R R R R : q dXfXJ.N.{.}._._._._._._.{.{.{.",
".X.X}.).~.P.OX-X,XD *.4X=.$.$.$.$.$.$.$.$.$.$.$.$.$.$.$.$.$.$.$.$.$.$.$.( R T R R R T T R T : - yXcXE.b.B.].{.'._._._.{.).~.L.L.",
".X.X.X}.(.L.(.+X<XuXS ;.!.&.$.$.$.$.$.$.$.$.$.$.$.$.$.$.$.$.$.$.$.$.$.( R T R R R R R R T ; q iXcXW.b.b.B.Y.{._._._.{.^.I.~./.OX",
".X.X.X.X{.^.L.P.OXhXtX! ;.>.%.$.$.$.$.$.$.$.$.$.$.$.$.$.$.$.$.$.$.#./ R T R R R T T R U ; K lXjXW.n.b.m.M.^.{._._.{.^.L.).@X#X-X",
".X.X.X.X}._.^.L.L.6XMXrX! ;.>.%.$.$.$.$.$.$.$.$.$.$.$.$.$.$.$.$.O.Q R R R R R R R R < t rXbXaXY.n.m.B.M.I.)._._.}.[.L.).@X-X=X=X",
".X.X.X_._._._.{.^.L.6XMXrXv *.>.=.$.$.$.$.$.$.$.$.$.$.$.$.#.( Q R T R R R R R R I 3 8.lXjX8XI.N.N.J.Y.^.)._._._.{.^.~.+X-X=X:X:X",
".X.X.X_._._._.}.{.^.I.6XvXiXD ..>.:.%.$.$.$.$.$.$.$.$.#./ W R T R R R R R R T > F tXbXaX|.~.^.^.[.{.{.|.}._._._.).^._.%X=X=X$X$X",
".X.X.X_._._._.).^.M.N.M.oXjXxXe.! -.>.=.$.$.$.$.$.#./ E R T R R R R R R U , t 2XxXfXoX[. X`. X X X X X`.'.'._._.).(.OX#X=X=X$X$X",
".X.X.X'._._.).~.M.n.L./.+X;XwXnXiX,.~ ;.:.$.$.$.O.W R R R R R R R U < 3 G eXzXkX8XN.M.[. X X X X X X`.`.'.'.'.'.).).OX#X=X=X$X$X",
".X.X.X.X.X_.^.M.n.L./.%X$X$X$X<XsXbXrXv *.%.$.( R I I I I < < > 3 F 8.yXbXkX9X;X(.n.M.[. X X X X X X X`.'.'.'.'.).(.OX#X=X=X$X$X",
".X.X.X.X X{.L.M.I.OX%X$X$X$X$X$X$X9XnXtX9 @.( < e L 8.e.e.e.rXtXdXbXkXsX1X*X$X%X(.n.M.[. X X X X X X X'.'.'.'.'.).^._.%X=X=X$X$X",
".X.X.X.X{.^.M.~.+X#X$X$X&X$X$X$X$X$X9XMXe.D D 2XzXvXkXhXhXhXsXsX9X1X;X$X$X$X$X+X~.M.L.{. X X X X X X X X X'._.'._.^.^.OX#X=X$X$X",
".X.X.X.X).L.P.OX$X$X$X&X$X&X&X$X$X$X$XwXvXxXbXkX9X>X%X%X/.OX#X$X$X$X$X$X$X$X$XOXL.n.I.{..X X X X X X X X X'._._..X{.~./.+X#X$X$X",
"'.'.'..X).~./.%X$X$X&X&X&X&X&X&X$X$X&X$X>X1X1X>X$X$X%X/.P.P./.#X$X$X$X$X$X$X#X/.M.n.~.}..X'.'.'.'.'.'.'.'.'._._.}.).~.~.OX#X$X$X",
"'.'.'.'._.).OX%X$X$X$X&X&X&X&X&X&X&X:X:X=X=X$X=X-X%X/./.~.L.~.@X%X$X:X=X=X$X+XP.n.L.).}.}.'.'.'.'.'.'.'.'._._._._./.OX+X#X$X$X$X"
};
