/* XPM */
static char *_c963d27dee44584c309059b50d7be99GbGOArW9ej8EUW9e[] = {
/* columns rows colors chars-per-pixel */
"64 64 244 2 ",
"   c #2D0600",
".  c #2C0902",
"X  c #330602",
"o  c #3A0702",
"O  c #350A02",
"+  c #3C0902",
"@  c #301705",
"#  c #333308",
"$  c #490702",
"%  c #450903",
"&  c #490901",
"*  c #510C05",
"=  c #471606",
"-  c #581405",
";  c #611805",
":  c #5A2508",
">  c #68270A",
",  c #742D0A",
"<  c #67320B",
"1  c #77320B",
"2  c #274906",
"3  c #2B4E05",
"4  c #274A0D",
"5  c #294C0C",
"6  c #2E5109",
"7  c #365809",
"8  c #294B11",
"9  c #2A4C15",
"0  c #2E5112",
"q  c #385A14",
"w  c #3E6116",
"e  c #7F5809",
"r  c #46680A",
"t  c #4E7601",
"y  c #4D7900",
"u  c #517600",
"i  c #537B02",
"p  c #577A09",
"a  c #4C6D13",
"s  c #456819",
"d  c #4B7418",
"f  c #55761D",
"g  c #6C670A",
"h  c #747709",
"j  c #4F7223",
"k  c #507428",
"l  c #853908",
"z  c #8A3E0A",
"x  c #8D4306",
"c  c #8E430A",
"v  c #86480A",
"b  c #914406",
"n  c #954B06",
"m  c #994D07",
"M  c #924509",
"N  c #944B0B",
"B  c #9A4E09",
"V  c #88540A",
"C  c #9D5306",
"Z  c #9E5C05",
"A  c #9C520B",
"S  c #98590A",
"D  c #884511",
"F  c #944B11",
"G  c #865914",
"H  c #985310",
"J  c #A55905",
"K  c #A55C04",
"L  c #A25609",
"P  c #A45A09",
"I  c #A15910",
"U  c #826608",
"Y  c #976605",
"T  c #847A07",
"R  c #987509",
"E  c #976F16",
"W  c #A36608",
"Q  c #AB7807",
"!  c #5C8204",
"~  c #598A06",
"^  c #4E9B0C",
"/  c #58980A",
"(  c #599318",
")  c #658905",
"_  c #678708",
"`  c #718D05",
"'  c #768809",
"]  c #6C9206",
"[  c #689808",
"{  c #769708",
"}  c #7D9D0B",
"|  c #658618",
" . c #7C9D13",
".. c #75951A",
"X. c #7C9C1C",
"o. c #4DA405",
"O. c #4CAE03",
"+. c #4DAD09",
"@. c #59A607",
"#. c #52AD05",
"$. c #54AD0A",
"%. c #5DAD09",
"&. c #47B201",
"*. c #4AB102",
"=. c #4DB008",
"-. c #52B105",
";. c #5FB006",
":. c #55B209",
">. c #5BB40D",
",. c #55A412",
"<. c #5DB812",
"1. c #64A008",
"2. c #64AD0C",
"3. c #78AD09",
"4. c #61B107",
"5. c #63B30A",
"6. c #6BB10A",
"7. c #73B30C",
"8. c #7AB30D",
"9. c #64B915",
"0. c #6CBC1C",
"q. c #78B117",
"w. c #688924",
"e. c #73962C",
"r. c #759B38",
"t. c #73BC22",
"y. c #78AC31",
"u. c #6CC11D",
"i. c #6CC522",
"p. c #78C727",
"a. c #7CC92A",
"s. c #7EA843",
"d. c #998808",
"f. c #8B930D",
"g. c #A58A0A",
"h. c #AB910B",
"j. c #B99C04",
"k. c #88A70A",
"l. c #95A906",
"z. c #91AF0F",
"x. c #88B90C",
"c. c #96B204",
"v. c #9AB403",
"b. c #9EB906",
"n. c #93B10D",
"m. c #9CB70A",
"M. c #94BC0D",
"N. c #9CBB0C",
"B. c #83A314",
"V. c #88A714",
"C. c #8CAC15",
"Z. c #84A41B",
"A. c #8DAC1A",
"S. c #91AF14",
"D. c #91AC18",
"F. c #93B113",
"G. c #9BB914",
"H. c #92B11B",
"J. c #A9A30B",
"K. c #B6AA0B",
"L. c #A1B602",
"P. c #A5BC04",
"I. c #ABBE03",
"U. c #A3BC0A",
"Y. c #A7BD14",
"T. c #8E8D2D",
"R. c #85A625",
"E. c #8BAB21",
"W. c #8DA92F",
"Q. c #95B524",
"!. c #98B92B",
"~. c #9BBC32",
"^. c #98BD36",
"/. c #A9A833",
"(. c #C2A402",
"). c #C5B605",
"_. c #9DC10F",
"`. c #ACC205",
"'. c #A0C20D",
"]. c #ACC40B",
"[. c #ADC80E",
"{. c #B3C605",
"}. c #B6C606",
"|. c #BCCB04",
" X c #B1C60B",
".X c #B4CB0C",
"XX c #BBCF0D",
"oX c #B7D00C",
"OX c #BAD00E",
"+X c #ADC513",
"@X c #AAC617",
"#X c #B2C410",
"$X c #B5CC13",
"%X c #BACF11",
"&X c #B3CC1C",
"*X c #B7D110",
"=X c #B9D010",
"-X c #82C92D",
";X c #88CA2F",
":X c #80D02F",
">X c #87C934",
",X c #8CCD35",
"<X c #9DC33A",
"1X c #95CD3B",
"2X c #8AD136",
"3X c #94D33D",
"4X c #97D83E",
"5X c #A9C72A",
"6X c #B2CD22",
"7X c #B1CD2B",
"8X c #A9CA39",
"9X c #B6C93B",
"0X c #ACD035",
"qX c #C6CA07",
"wX c #CBD607",
"eX c #C2D20A",
"rX c #CCDA0C",
"tX c #D5D603",
"yX c #D4DB06",
"uX c #DDDE01",
"iX c #D3DD0A",
"pX c #C5D311",
"aX c #E0DE00",
"sX c #DEE003",
"dX c #D4E009",
"fX c #DBE108",
"gX c #E1E001",
"hX c #93BF46",
"jX c #9BC646",
"kX c #9AD543",
"lX c #97D842",
"zX c #9DD945",
"xX c #A5C942",
"cX c #A3CD4B",
"vX c #B1CC4B",
"bX c #A7D545",
"nX c #A3DA46",
"mX c #A6D64C",
"MX c #A9D64C",
"NX c #A5D84B",
"BX c #A6D84A",
"VX c #A6D94D",
"CX c #A8D94C",
"ZX c #A7D651",
/* pixels */
"8 8 8 8 5 q d f f d s q 8 8 8 5 8 8 8 4 4 8 8 8 8 8 8 8 8 8 0 s.jXw 9 9 9 9 8 8 8 8 8 8 8 9 8 5 f R.F.n.n.S.z.z.S.A.w.7 4 4 4 2 ",
"8 8 8 8 8 0 w s q q q 0 8 5 5 8 8 8 8 5 4 4 4 8 8 8 8 8 0 j r.ZXVXr.e.r.e.s q k k q 5 3 5 8 4 3 | E.F.n.z.S.S.S.S.A.Z.p 6 5 7 r ",
"4 5 8 8 8 8 8 0 5 5 8 8 8 5 5 8 4 5 7 a a w 6 5 0 w.k j r.cXMXBXBXBXBXCXCXjXhXZXmXjXy.w.a 6 2 7 ..H.F.n.z.z.S.S.S.S.C.X.a a w.R.",
"5 5 5 8 8 8 8 8 8 8 8 9 8 8 8 5 7 p ..Z.Z.X.| r j cXcXkXCXBXBXmXBXBXBXBXBXBXBXBXBXBXVXjXW.| 7 r X.H.F.F.S.S.S.S.S.S.S.A. .X.E.A.",
"5 5 5 8 8 8 8 8 8 8 9 9 8 4 5 7 p Z.S.F.F.S.A.W.jXVXCXbXBXBXBXBXBXBXBXBXBXBXBXVXVXBXBXBXmX^..._ B.H.F.S.S.S.S.S.S.S.S.S.C.S.S.S.",
"5 5 5 5 8 8 8 8 8 8 8 5 4 5 3 r X.A.F.H.!.Q.~.mXBXVXMXBXBXBXBXBXBXBXBXBXBXBXBXBXmXBXBXBXBXBXcXW.E.F.F.S.S.S.S.S.S.S.S.S.S.S.S.S.",
"4 5 5 5 8 8 8 9 9 8 4 5 5 5 7 _ A.H.S.<XZXmXmXBXBXBXBXBXBXBXBXBXBXBXBXBXBXBXBXBXmXmXmXBXZXBXBXVXmX^.S.S.S.S.S.S.S.S.S.S.S.S.S.S.",
"5 5 4 4 8 8 8 8 8 8 6 6 3 3 r  .C.S.S.!.VXBXBXBXVXBXBXBXBXBXBXBXBXBXBXBXBXBXBXBXmXVXmXBXBXBXBXBXBXxXS.S.S.S.S.S.S.S.S.S.S.S.S.S.",
"3 3 3 2 5 8 8 4 3 7 a f a r _ A.S.S.S.Q.bXBXBXBXCXBXBXBXBXBXBXBXBXBXBXBXBXBXBXBXBXBXBXBXBXBXBXBXBX<XS.S.S.S.S.S.S.S.S.S.S.S.S.S.",
"7 r a r 7 5 8 5 r | Z.Z.X.X.Z.C.S.S.S.<XVXCXCXBXBXBXBXBXBXBXBXBXBXBXBXBXBXBXBXBXBXBXBXBXBXBXBXBXBXMX~.S.S.S.S.S.S.S.S.S.S.S.S.S.",
"| R.R.X.w.s 3 6 | V.S.S.!.cXjXH.S.!.8XVXBXCXBXBXBXBXBXBXBXBXBXBXBXBXBXBXBXBXBXBXBXBXBXBXBXBXBXBXBXZXcXH.S.S.A.C.A.A.S.S.S.S.S.S.",
"E.A.H.A.E.e.r r ..S.S.H.cXBXVX<X~.cXCXVXBXBXBXBXBXBXBXBXBXBXBXBXBXBXBXBXBXBXBXBXBXBXBXBXBXBXBXBXBXCXVX^.S.A.V.B.B.V.V.C.S.S.S.S.",
"S.F.S.S.S.A.....V.S.Q.8XVXBXBXmXmXBXMXMXBXBXBXBXBXBXBXBXBXBXBXBXBXBXBXBXBXBXBXBXBXBXBXBXBXBXBXBXBXCXBX<XA. .] ) ! ) { V.A.S.S.S.",
"S.F.S.S.S.D.A.A.Q.~.MXMXVXBXVXVXBXBXmXVXBXBXBXBXBXBXBXBXBXBXBXBXBXBXBXBXBXBXBXBXBXBXBXBXBXBXBXBXBXBXlX>X..! i u u i !  .A.S.S.C.",
"S.S.S.H.~.^.!.!.cXMXMXMXCXBXBXBXBXmXBXBXBXBXBXBXBXBXBXBXBXBXBXBXBXBXBXBXBXBXBXBXBXBXBXBXBXBXBXBX>X0.>.@.! u t t t u i ] V.S.C.B.",
"S.S.S.Q.ZXVXmXmXmXBXBXBXBXBXBXBXBXmXBXBXBXBXBXBXBXBXBXBXBXBXBXBXBXBXBXBXBXBXBXBXBXBXBXBXBXBXBX3X:.O.*.O.^ i t i i y i ) V.C.} ) ",
"S.S.S.Q.nXBXBXBXmXVXBXBXBXBXBXBXBXBXBXBXBXBXBXBXBXBXBXBXBXBXBXBXBXBXBXBXBXBXBXBXBXBXBXBXBXBX,X>.*.*.*.*.O.~ ! i y y i )  .{ i i ",
"S.S.H.<XnXBXBXBXBXBXBXBXBXBXBXBXBXBXBXBXBXBXBXBXBXBXBXBXBXBXBXBXBXBXBXBXBXBXBXBXBXBXBXmXBXBX1Xu.:.*.&.*.$.F.k.) t y i ! ) i u u ",
"S.S.~.ZXBXBXBXBXBXBXBXBXBXBXBXBXBXBXBXBXBXBXBXBXBXBXBXBXBXBXBXBXBXBXBXBXBXBXBXBXBXBXBXBXBXBXBXzX9.*.=.%.M.%X+Xk.i y y i i i u i ",
"S.S.xXZXBXBXBXBXBXBXBXBXBXBXBXBXBXBXBXBXBXBXBXBXBXBXBXBXBXBXBXBXBXBXBXBXBXBXBXBXBXBXBXBXBXBXzX-X-.*.+.M.pX%X%XF.i y y y y y y y ",
"S.S.jXBXBXBXBXBXBXBXBXBXBXBXBXBXBXBXBXBXBXBXBXBXBXBXBXBXBXBXBXBXBXBXBXBXBXBXBXBXBXBXBXVXCXzX0.=.*.*.$.'.eXXX%XF.i y y y y t t t ",
"S.Q.kXBXBXBXBXBXBXBXBXBXBXBXBXBXBXBXBXBXBXBXBXBXBXBXBXBXBXBXBXBXBXBXBXBXBXBXBXBXBXBXBXBXBX2X>.*.*.*.5.XXOXOX$Xk.i y y y i i p i ",
"q.t.-X,XnXBXBXBXBXBXBXBXBXBXBXBXBXBXBXBXBXBXBXBXBXBXBXBXBXBXBXBXBXBXBXBXBXBXBXBXBXBXBXBXa.$.O.*.*.O.7.XXOXOX$Xk.i y y i ] V.D.V.",
",.O.O.0.nXCXBXBXBXBXBXBXBXBXBXBXBXBXBXBXBXBXBXBXBXBXBXBXBXBXBXBXBXBXBXBXBXBXBXBXBXBXBX-X:.*.*.&.*.O.7.XXXX%X].} y i ) k.Y.$X$X&X",
"~ o.O.0.4XCXBXBXBXBXBXBXBXBXBXBXBXBXBXBXBXBXBXBXBXBXBXBXBXBXBXBXBXBXBXBXBXBXBXBXmXkXzXu.O.&.*.&.&.*.7.XXXX=XG.] ! { F.+X%XXXXX%X",
"i o.O.O.i.-XkXBXBXBXBXBXBXBXBXBXBXBXBXBXBXBXBXBXBXBXBXBXBXBXBXBXBXBXBXBXBXBXBXBXzX0.9.:.*.*.*.*.&.5.[.XXXX$XS.) } @X$X%XXXXXXX%X",
"y ^ *.*.*.$.,XBXBXBXBXBXBXBXBXBXBXBXBXBXBXBXBXBXBXmXBXzXnXBXBXBXBXBXBXBXBXBXkX1XlXu.O.*.*.&.*.*.*.%.[.OXXX].k.k.+X%XXXXXXXXXXX%X",
"i ^ *.O.&.>.kXBXBXBXBXBXBXBXBXBXBXBXBXBXBXBXmXCXBXBX3X0.,XBXa.-XBXkXzX,X2X2X9.$.9.<.*.&.*.&.*.*.&.O._.OXOX].U.+X%XXXXXXXXXXXXX%X",
"i ~ o.O.*.0.BXBXBXBXBXBXBXBXBXBXBXBXBXBXVXCXBXkX-Xa.>.#.a.p.=.:.u.9.p.:.=.*.&.*.*.*.&.*.O.2.7.5.5.7.[.OXOX.X.XOXXXXXXXXXXXXXXX$X",
"` } 1.&.*.a.zXkXBXVXBXBXBXBXBXBXBXBXBXBXBX3X0.9.O.*.*.*.*.*.*.*.*.*.*.*.*.*.*.*.*.*.*.O.] l.*X$X X.XOXOXOXOXOXOXXXXXXXXXXXXX$XU.",
"G.@X8.O.*.<.<.9.nXBXBXBXBXBXBXBXBXkXnXkXi.<.*.*.*.*.*.*.&.&.*.*.*.*.*.&.*.*.*.*.*.#.@.` Y J.OXOXOXOXOXOX%XOXOXOXXXXXXXXXXX%X@Xk.",
"&X%Xx.O.*.*.*.>.a.3XBXBXBXBXBXMXzX0.0.u.*.O.*.*.O.*.*.*.*.O.@.[ _ _ _ / +.=.*.*.@.` T Y J J.OXoX.X.XXX7X0X$XXXXXXXXXXXXXXX$XN.{ ",
"&XXX XM.6.*.*.*.O.p.lX1XkXkXBXBX,X-.*.*.*.O.@.[ ` @.*.=.[ h R Y S S N G h / *.&.[ Y J K Y J.$X6X7X7X7XMXmX0X0X7XXXXXXXXX%X$Xn.k.",
"+XXXXXOXx.+.*.*.*.:.:.:.<.>.:X2X<.*.*.*.*.#.` Y Y ` @._ e P M < : : > < < g / #.' Z K K R xXMXmXVXZXMXVXmXVXBXbX0X&XXXXX%X[.U.+X",
"N.$XXXXX Xx.6.-.*.*.&.*.&.*.=.-.*.*.*.O.%.k.d.K K V G v N , =           X O # g e Z K W /.MXVXVXBXBXBXBXBXBXBXBXVXbX7X%X%X$X$X%X",
"} @X%XXXXXXX.X6.*.*.*.*.*.*.O.&.*.#.#.O.3.v.d.K K z l M > % X                 = D M Y /.ZXBXBXBXBXBXBXBXBXBXBXmXBXBXVX0X7X0X&X%X",
") F.$XXXXXXXXX8.+.2.x.6.7.6.2.6.] h ' _ f.l.J.K L z H , & +                     > z E vXCXBXBXBXBXBXBXBXBXBXBXBXBXBXBXBXVXMX6XXX",
"i { Y.$X=XXXXX].M.[.XX.X%X$X$X$Xd.v S V N R g.K N N F - % o                     = G T.MXCXBXBXBXBXBXBXBXBXBXBXBXBXBXBXBXVXbX$X%X",
"y i } @X%XOXXXXXOXXXXX%X%X%X%X$XU.U M P c N K J M B l & % X                     @ T.1XkXBXBXBXBXBXBXBXBXBXBXBXBXBXBXBXBXBXmX&XXX",
"y y ! C.$XXXXXXXXXXX%X%X%X%X%X$X`.J.v C L z M K x A , % % X                     @ ( 5.3XBXBXBXBXBXBXBXBXBXBXBXBXBXBXBXBXBX>XG.XX",
"i y t ) G.$X%XXXXXXX%X%X%X%X=X.X{.{.d.x P A l N M A > & % X                     # ^ u.3XBXBXBXBXBXBXBXBXBXBXBXBXBXBXVXBX4X2.N.OX",
"k.} ] _ { N.$XXXXX%X%X%X=XOX.X$X6X0X9XG m J c M B L > & % o                     # ,.:.>.,XCXBXBXBXBXBXBXBXBXBXBXBXBXVXBXa.$.x.XX",
"+X@X@XG.k.l.[.XXXX%X$X$X$X[.].@XxXmXZX/.S J M B A L , & & +                 .   # ^ *.-.2XBXBXBXBXBXBXBXBXBXBXBXBXBXBX,X:.#.M.OX",
"XX=X%X$X[.`. XXX%X$X+XU.v.c.c.c.n.G.8XvXg.J C m b C l $ & % X                 . d $.=.>.4XBXBXBXBXBXBXBXBXBXBXBXBXBXBX-X*.;.[.XX",
"XXXXXXXXXXXXXXXX$X+Xm.c.c.c.c.v.v.v.8X9XqXQ J J b L M * % % X                 . s @.O.:.;XBXBXBXBXBXBXBXBXBXBXBXBX3X-Xu.*.;.].OX",
"XXXXXXXXXXXXXX%X+Xm.c.c.v.P. XXX|.|.%XpXuX).W C M A A - % % X                   = h #.*.-XBXCXCXBXBXBXBXBXBXBXBXCX,X$.#.=.#.M.OX",
"XXXXXXXXXXXXXX$XU.c.v.`.OXrXiXdXdXyXuXuXuXuXj.C L M A , & % o                   < T @.*.9.kXBXBXBXCXBXBXBXCXBX4X4Xp.#.*.=.$.M.OX",
"=XOXOXOXOX%X%X Xv.P.eXiXiXfXfXfXsXsXsXsXsXsX).K K m N F * & + X               + v h @.*.#.a.-Xt.kXCXBXCXBX3X-X>.>.-.*.*.4.N. XXX",
"@X$X%X=X=X%X$X`.L.XXdXsXaXuXuXuXuXuXuXsXsXsX).K K L M I > & % o               > H v [ -.*.:.-.O.a.nX-Xp.p.>.:.*.*.*.*.+.8.%X=X.X",
"k.Y.$X%X=X%X$X`.P.eXfXsXaXaXuXuXuXuXuXsXsXsX).C m P c A N - $ % o X         = F c A T @.#.#.*.*.>.i.:.*.=.*.#.*.=.*.#.8.@X$X$X X",
"} l.`.$X=X=X%X XI.eXiXuXuXuXuXuXuXuXuXuXsXsXK.A b K A z A M ; $ % + o X o = D M M P Z U ~ -.O.#.=.*.O.=.*.=.-.-.#.%.3.b.U.L.b.].",
"+X+X X%X=X=X=X$XU.`.wXyXuXuXuXuXuXuXuXuXuXsXj.B b K P C z n B 1 - - * - > F M M P M C n U [ 2.t.t.3.%.#.#.-.-.O.7.b.}.eXeX|.I.}.",
"=X%X%X=X=X=X=X%X XP.I.eXyXyXfXfXuXuXuXuXuXuXh.M B K K K L M c A A B N A P N x J B M J J Z Y Q.BX<Xn.m.M.x.2.O.2.U.eXiXfXfXiXwXiX",
"OXXX=X=X=X=X=X%X%X XP.L.I.XXrXiXyXtXuXuXuXtXQ b J A L K K K A M b b M m J n C K c B L C K Y D.xXMX5X XXXXX'.8.c.eXiXfXsXsXsXsXsX",
"XXOX=X=X=X=X=XXXXXXX$X].b.b.P.I.|.tXuXuXsXtXW b K n C K K K K K J J L B J J K K b B C M J R n.G.5X&XXXXXXX$X`.{.iXsXgXgXgXgXgXgX",
"=X=X=X=X=X=XXXXXXXXX%X$X+Xm.c.L.{.tXuXuXsXqXS m K m m K K K K K K K K C P K K K N n P n L g.[.$X$X$XXXXXXX X].eXfXsXuXuXaXaXaXuX",
"=X=X=X=X=X=XXXXXXXXX.X`.b.c.L.}.rXyXuXuXsX).B L K A n K K K K K C J K B M K K m N c K K J J.*X*X*X=XOXXXXX X.XrXfXsXuXuXuXuXuXuX",
"=X=X=X=X=X=X=XXXXXXX`.v.c.P.eXiXyXuXuXuXsX(.J K K A x C J K K K M B K J x A K B z z J K J J.*X*X*XOXOXOXOX X.XrXyXsXuXuXuXuXuXuX",
"=X=X=X=X=X=X=X=XXX Xb.c.I.eXiXuXuXuXuXuXsXj.P K K n c b C K K K L b J K A c K Z l l J K K J.*X*XOXOXOXOXOX X.XrXfXsXuXuXuXuXuXuX",
"%X%X=X=X=X=X=X=X$XU.v.I.eXyXuXaXaXuXuXuXsXj.J K K c N z J K K K P b m K C x J K x l K K K J.*X*XOXOXOXOXOX X XeXfXsXuXuXuXuXuXuX",
"XX%X=X=X=X=X=X$X[.L.`.wXyXuXuXaXaXaXuXuXsX).W J K c c x J K K K K M m K m M J J N c P W g.#X*X*X*X*XOXOXOX.X]..XiXsXuXuXuXuXuXuX",
"XX%X=X=X=X=X=X$X`.P.eXyXuXuXaXaXaXuXuXuXuXuX).Q W v v S W J K J K n A K M N Q R R d.J.Y.$X*X*X*X*X*XOXXXXX%X[.`.eXiXyXuXuXuXuXuX",
"XX%X=XOXOXOXOXXX`.{.wXuXuXaXaXaXaXaXuXuXuXuXuXtXqX).).I.J.g.g.g.Q Q Q h.j.).}.c.v.[.=X=XOXOXOXOXOXOXOXXXXX%X X`.|.yXyXuXuXuXuXuX",
"XXXXXXOXOXOXOXXX.XOXiXuXuXuXaXaXaXaXaXgXgXsXsXsXgXfXrX|.{.P.P.pXiXtXtXsXsXyXI.c.U.XX%X%XOXOXOXOXOXOXXXXXXX}.|.wXiXuXuXuXuXuXuXuX"
};
