/* XPM */
static char *_470ff37a44b4918d6cd707afd115fe8cqGDOj3i0mubJNnC[] = {
/* columns rows colors chars-per-pixel */
"64 64 255 2 ",
"   c #190E00",
".  c #260401",
"X  c #2C0401",
"o  c #250A00",
"O  c #2A0901",
"+  c #2B0609",
"@  c #320301",
"#  c #3B0400",
"$  c #350A05",
"%  c #341600",
"&  c #1A3600",
"*  c #313600",
"=  c #470300",
"-  c #440B01",
";  c #4A0B01",
":  c #510A00",
">  c #571700",
",  c #621700",
"<  c #583B00",
"1  c #662804",
"2  c #6E3108",
"3  c #783705",
"4  c #214302",
"5  c #254803",
"6  c #2B4D03",
"7  c #274B0C",
"8  c #284C0E",
"9  c #2E5103",
"0  c #37590C",
"q  c #294B12",
"w  c #2A4C19",
"e  c #325316",
"r  c #7A4905",
"t  c #6A5701",
"y  c #78540B",
"u  c #446800",
"i  c #496B02",
"p  c #467200",
"a  c #4C7201",
"s  c #4E7A01",
"d  c #517600",
"f  c #527901",
"g  c #597C04",
"h  c #46691A",
"j  c #56781C",
"k  c #726F0C",
"l  c #797805",
"z  c #5F6824",
"x  c #53732B",
"c  c #843901",
"v  c #8A3C00",
"b  c #883915",
"n  c #864603",
"m  c #8C4401",
"M  c #934500",
"N  c #944B01",
"B  c #9B4C01",
"V  c #944A09",
"C  c #8A5406",
"Z  c #9B5204",
"A  c #995707",
"S  c #8F4B16",
"D  c #8A5613",
"F  c #9B5618",
"G  c #A55907",
"H  c #AC580F",
"J  c #AA5C0C",
"K  c #A45C13",
"L  c #A75B17",
"P  c #8E6800",
"I  c #986403",
"U  c #8B6815",
"Y  c #9C6516",
"T  c #8D7510",
"R  c #A8620A",
"E  c #B2610A",
"W  c #A96215",
"Q  c #B36517",
"!  c #935123",
"~  c #965422",
"^  c #A65B26",
"/  c #94732C",
"(  c #A86C2B",
")  c #5B8300",
"_  c #4B9C07",
"`  c #529510",
"'  c #569716",
"]  c #658603",
"[  c #648A03",
"{  c #6C8D01",
"}  c #6A9906",
"|  c #739607",
" . c #7B9C04",
".. c #718D12",
"X. c #45A505",
"o. c #4BA502",
"O. c #45AC01",
"+. c #4CAC03",
"@. c #4BAC0B",
"#. c #57A706",
"$. c #53AB04",
"%. c #54AC0B",
"&. c #5AAC0C",
"*. c #4CB201",
"=. c #49B305",
"-. c #53B304",
";. c #57B30B",
":. c #4BA813",
">. c #57A717",
",. c #4BB412",
"<. c #5DB717",
"1. c #63A709",
"2. c #67AA17",
"3. c #6FB516",
"4. c #69B718",
"5. c #529424",
"6. c #6D8D29",
"7. c #699B28",
"8. c #759626",
"9. c #5CAF25",
"0. c #65A82A",
"q. c #6BB92B",
"w. c #73AF32",
"e. c #6CC21D",
"r. c #79C728",
"t. c #76CC2E",
"y. c #6B8D49",
"u. c #74AF46",
"i. c #8EAD06",
"p. c #94AE01",
"a. c #9BAE00",
"s. c #91AF0F",
"d. c #92B002",
"f. c #9AB406",
"g. c #92B10D",
"h. c #86A718",
"j. c #8FAE1A",
"k. c #90AF14",
"l. c #92AE19",
"z. c #92B013",
"x. c #9BBA15",
"c. c #92B11D",
"v. c #A3BA01",
"b. c #A6BF08",
"n. c #A3BE11",
"m. c #968B29",
"M. c #8EAD22",
"N. c #89A928",
"B. c #9CBB25",
"V. c #90B032",
"C. c #AEAC36",
"Z. c #CFB53A",
"A. c #ADC406",
"S. c #ADC60E",
"D. c #B7C906",
"F. c #BBCF0D",
"G. c #BCD207",
"H. c #BAD00D",
"J. c #ABC516",
"K. c #A9C41C",
"L. c #B7CF16",
"P. c #B9CF12",
"I. c #B6CC1A",
"U. c #B7D112",
"Y. c #B9D011",
"T. c #B5D01B",
"R. c #BCD319",
"E. c #86CA35",
"W. c #89CB31",
"Q. c #89D437",
"!. c #94D43C",
"~. c #B7CE23",
"^. c #B7D224",
"/. c #A5C239",
"(. c #A3D53F",
"). c #B3D137",
"_. c #C2CE02",
"`. c #CBD808",
"'. c #D0D501",
"]. c #DEDE01",
"[. c #C7DA11",
"{. c #E0DE00",
"}. c #E1DE15",
"|. c #DEE103",
" X c #D6E40A",
".X c #DAE10C",
"XX c #D4E212",
"oX c #D8E314",
"OX c #E1E001",
"+X c #E2E109",
"@X c #CECD37",
"#X c #DDD738",
"$X c #E2D433",
"%X c #DAE22A",
"&X c #AC8F43",
"*X c #8DB64E",
"=X c #85BA49",
"-X c #83AD55",
";X c #B0B347",
":X c #95A465",
">X c #A4BE6B",
",X c #D2944A",
"<X c #C6B14B",
"1X c #C7B063",
"2X c #9AC648",
"3X c #90CC4E",
"4X c #9DD443",
"5X c #98D747",
"6X c #9CDB45",
"7X c #9DDC49",
"8X c #A6C949",
"9X c #BAC749",
"0X c #A3D545",
"qX c #A8D447",
"wX c #A5DA45",
"eX c #A9DA45",
"rX c #A4D64C",
"tX c #A9D64B",
"yX c #A4D94B",
"uX c #AADA4C",
"iX c #B7D545",
"pX c #A7CA57",
"aX c #B7C75C",
"sX c #A5D652",
"dX c #AAD553",
"fX c #A5DA52",
"gX c #ABDB52",
"hX c #ABD45B",
"jX c #AAD95A",
"kX c #B5D657",
"lX c #96E144",
"zX c #9CE34B",
"xX c #9EE154",
"cX c #A3E24C",
"vX c #A6E64C",
"bX c #A4E452",
"nX c #A9E553",
"mX c #B2E153",
"MX c #9FCC63",
"NX c #A9CA66",
"BX c #B4CB65",
"VX c #ACD363",
"CX c #AAD666",
"ZX c #B4D467",
"AX c #AAC875",
"SX c #B5CC75",
"DX c #ADD370",
"FX c #BAD678",
"GX c #C9CE4C",
"HX c #C5DA59",
"JX c #C7E25E",
"KX c #C2D973",
"LX c #9DB581",
"PX c #B9D585",
"IX c #BAD993",
/* pixels */
"8 q q q q q 8 0 j j j j h 8 q q 8 8 q q 8 q q q q q q q q q e PXPXx q w w q q q q q q q q q 4 6.M.z.g.s.k.s.g.j.8.4 8 q q 4 4 8.",
"8 q q q q q q 8 h h 0 0 0 q 8 8 q q w w 4 4 q q q q q q q y.AXNXNXFXAXPXIXy.h :XLXx 4 4 w q 4 N.c.g.g.s.k.k.k.k.j.g 4 4 6 i 9 ..",
"q 8 7 8 q q q q 8 8 8 q q q 8 8 q q 4 6 h h 6 4 8 :Xy.y.DXpXpXhX8XhXhX2XpXjXVXpXBXNXPXj 4 4 9 N.z.g.k.s.s.k.k.k.k.M.0 h V.N.N.M.",
"8 7 7 8 8 q q q q q q q q q q q q 6 i N.M.M.N.g y.AXNXVX8XuXuX0XuXuXuXmXuX0X0XuXqXhXVXPXAX5 i N.z.g.k.k.s.s.k.k.k.j...N.M.j.l.j.",
"8 7 8 8 8 q q q q q q q q q q 8 6 i N.z.g.g.z.FXDXCXhXrXuXeX0XuXrXrXrXrXrXyXyXuXgXdXhXVXNXPX*XM.z.z.k.k.k.k.k.k.k.k.k.k.k.k.k.k.",
"8 7 7 8 8 8 q q q q q q 8 8 8 6 9 N.c.B.FXpXFXNXpXjXrXwXvXwX0X0XuXfXfXrXrXfXyXrX0X0X0XhXVXpXDXkXB.z.k.k.k.k.k.k.k.k.k.k.k.k.k.k.",
"8 7 7 8 8 8 q q q q q q 8 6 8 6 g j.c.PX>XVXhXsXgXrXwXwX4X0XnXyXrXrXfXfXfXrXrXyXnXyXyXuXrXdXjXhXDXBXk.k.k.k.k.k.k.k.k.k.k.k.k.k.",
"8 7 7 8 8 8 q q q q q q 6 6 7 6 h.k.k.FXpXgXqXyXrXyXwXwXrXfXgXrXyXyXyXrXyXfXyXyXrXyX0XwXuXrXrXdXpXSXk.k.k.k.k.k.k.k.k.k.k.k.k.k.",
"8 7 9 6 5 5 8 q q 5 6 0 j j 6 i M.k.k.8XZXuX0XyXyXyXyXyXsXsXsXyXyXyXyXyXyXyXwXwXwXwXwXwXyXyXyXdXpXFXk.k.k.k.k.k.k.k.k.k.k.k.k.k.",
"8 6 5 u d 0 5 7 w 8 i N.M.V.h.h.k.k.k.FX8XuXuXwXyXyXyXfXfXfXyXyXyXyXyXyXyXyXyXyXyXyXyXyXyXyXyXtXkXBXaXk.k.k.k.k.k.k.k.k.k.k.k.k.",
"8 6 g V.V.N.8.0 5 5 N.k.8XAXSXc.k.8XKXVX8XuXeXwXwXyXyXyXwXwXwXyXyXyXrXrXdXsXsXsXsXsXsXyXyXyXyXyXqXpXFXc.j.j.j.j.k.k.k.k.k.k.k.k.",
"& j N.j.j.j.M.V.6 i j.c.SXNXBXZXkXDXpXdXgXuX0XwXwXyXyXyXwXwXwXyXyXrXrXrXtXsXsXsXsXsXsXrXyXyXyXyX0XgXNXBXj.j.h.M.j.k.k.k.k.k.k.k.",
"5 8.j.g.z.k.k.l.8.8.8XZXpXkXgXtXdXsXdXdXdXdXyXyXyXyXsXsXyXyXyXyXyXyXyXyXyXyXyXyXyXyXyXyXyXyXyXyXyXfXsXZX{ ) d ) | j.j.k.k.j.j.j.",
"i N.j.s.k.k.k.l.V.VXVXhXrX0X(.eX0XuXgXrXsXfXgXyXyXyXsXsXyXyXrXyXyXyXyXyXwXwXwXyXyXyXyXyXyXyXyXyXzXzX5X3Xd d d d d h.j.k.k.j.M.| ",
"g c.z.z.8XBX8X/.NXVXhXsXgXfXyXwXwXeXrXfXfXfXyXyXyXyXyXyXsXsXyXyXyXyXyXyXyXyXyXyXyXyXyXyXyXyXyX7XQ.4.1.w.f s s d d { j.k.j.h.) d ",
"{ c.k.8XAXNXVXpXhXsXgXrXsX4XyXyX0XwXrXsXfXrXrXyXyXyXyXyXsXsXyXyXyXyXyXyXyXyXyXyXyXyXyXyXyXyXwX6X%.%.$.>.-X..f f f [ l.l. .f f f ",
"j.j.k./.NXhXgX0XyXyXdXtXqXyXyXyXyXyXrXrXrXyXyXyXyXyXyXrXrXrXrXqXeXwXyXfXsXsXtXyXwXwX0XyXuXwXQ.#.:.@.+.4.` -Xf s f f c.{ a f f f ",
"j.k.B.ZXVXrXwXwXwXyXtXtXqXuXyX7XyXrXrXrXrXyXyXyXyXyXrXrXrXrXtXuXwXwXyXfXsXdXqXuXwX4XnX0X0XmXW.4.,.@.-._ 7.N.p s s [ [ a d d d d ",
"k.k.ZXhXgX0XyXyXyXyXrXtXqXrXyXyXyXyXyXyXyXyXyXyXyXyXyXyXyXyXyXyXwXyXyXsXdXtXqXeXwXyXrXrXrXyXnXvX<.=.%.0.iXn.a s s s s s f f d d ",
"k.z.VXsXrXrXsXfXyXyXyXrXqXrXyXyXyXyXyXyXyXyXyXyXyXyXyXyXyXyXyXyXyXyXyXdXtXtXqXwX0XuX0XgXgX4X5XQ.o.o.>.iXF.~.f s s s s s s s f d ",
"k.k.VXrXrXgXsXdXyXyXyXwXeXeXyXyXyXyXyXyXyXyXyXyXyXyXyXyXyXyXyXyX7XyXyXyXyXyXwXwXwX0XgX7XfXxXq.o.*.%.5.).F.~.f s s s s f f f f f ",
"j./.CX7XyXrXgXrXyXyXyXyXeXwXyXyXyXyXyXyXyXyXwXyXyXyXyXyXyXyXyXyXyXyXyXyXyXyXwXwXuX0XtXfX7Xt.<.@.*.@.u.H.F.n.f s s s f a a a f s ",
"2Xu.w.Q.6X!.uXtXrXyXfXfXyXyXfXfXyXyXyXyXyXyXqXqXtXtXqXyXyXyXyXyXsXsXrXyXyX7X6XwX0XtXrXbXt.@.@.O.=.X.*XH.Y.n.a s s a { j.B. .f f ",
"0.` >.4.zXwX0XqXyXyXfXfXyXyXyXfXyXyXyXyXyXqXqXqXtXqXqXyXyXyXyXrXdXdXtXyX7X7XyXyXqXqXyXr.+.O.*.=.O.:.*XF.P.i.a s f s.~.P.P.~. .a ",
"2X0.>.q.lXbXyXuXuXyXrXyXwXwXyXyXrXuXuXuXrXrXgXqXtXgXrXrXrXyXfXrXdXdX8XuX7X7XyXuX0X0XvXe.O.O.*.*.=.:.u.P.T. .a [ x.I.F.G.F.P.B.i ",
"8.w._ %.r.E.!.uXrXrXyXyXwXwX0XrXrXgXuXrXfXuXuXgXrXyXrXyXfXyX4XrXqXtXqXyX7X7X0XwXwX3.4.;.=.=.-.+.+.q.R.P.~.g { ~.L.P.F.F.G.P.B.a ",
"[ u.>.+.+.#.W.rXyXyXyXyXrXrXrXdXgXtX0XrXuXyX4X4XfX4XyXyX4X7XcXcXfX7XyX5XcXbX5X!.zX4.O.O.O.O.#.&.%.9.R.Y.d.{ T.P.F.F.F.F.F.P.k.a ",
") y._ ;.+.&.7XnXyXyXyXyXyXrXsXdXgX0XgXuX4X7XcXcX6XnX!.2.Q.nXW.r.zX5XzXQ.Q.Q.4.#.4.<.O.=.@.@.>.' >.5.iXY.d.L.P.F.F.F.F.F.F.I. .p ",
"s -X0.+.X.e.zX7X0XwXyXyXuXuXuXrXyX0XyXyXyXcX6X5Xt.r.&.#.t.r._ &.e.q.e.$.#.#.+.$.X.*.+.%._ w.=Xu.w.-X^.H.Y.H.F.F.F.F.F.F.F.~.f s ",
"s d =X:.@.t.lX6XcXyXyXrXyXuXuXyXyXuXyX6XzXQ.4.4.$.X.;.-.o.$.$.$.o.o.;.+.$.-.@.%.*.+.#.2.' dXH.U.Y.H.H.H.H.H.F.F.F.F.F.F.L.p.a s ",
"s d 3X:.,.-.&.3.wXyXfXrXrXrXuXyXyX4XcX6Xr.<.o.@.*.*.O.O.*.*.o.$.&.&.$.-.-.-.+.o.;.#.| ..k aXU.H.F.P.H.H.H.H.F.F.F.F.F.P.~.{ a [ ",
"d ] MX5.:.@.;.#.W.!.yXfXyXyXyX0XyX2.3.e.o.+.&.#.#.$.*.*.#.#.1.} ) [ ) } 1.#.$.$.#.| { l y GXH.P.P.F.H.HXKXR.F.F.F.F.F.L.x.i i.~.",
"s ] ).hXu.>.%.&.#.r.5X!.7X!.wXcXQ.%.$.+.*.*.1.} { } &.#...l l T U U y t k ..2.#.| l P I U GXY.).JXJXJXDXNXKXKXHXF.F.F.L. .x.T.P.",
"a f J.P.pX5.>.%.$.;.;.o.4.#.Q.Q.<.+.-.-.O.o...l l l | [ t U D 1 > > 2 2 < k 8.8.m.P A I T 1XSXDXpXpXjXsX8XhXpXNXZXGXY.b.b.T.P.P.",
"s i p.L.R.8Xw.<.%.+.*.=.=.@.O.O.@.@.O.+.w.VX&XD W C y t D 3 ; # # X . . .   * z r A I P C.kXdX7XgXrXfXfXhXhXhXCXVXFXHXR.Y.Y.Y.F.",
"[ i g ~.P.F.H.w.>.<.X.X.:.:.:.>.>.&.1.' 8Xi.1XS ^ v 3 F 1 = # @ X $ + + $ .   % S n P C.HX0XyXyXuXrXrXfXdXrXsXsXsXhXNXZXHXJX^.P.",
"M.[ a k.T.F.F.*X5.w.0Xw.3X=Xu.=Xk l l l &Xf.1XF W 3 L 3 # ; @ # $ X . + X $ X X 2 r k HXdXsXyX4XwXyX7XfXgXdXfXyXwXuXtXhXhXAXHXP.",
"..[ s g J.P.F.@XkXR.F.F.F.F.Y.P.;X< U r r &X,XK N A F = > # # X @ X . + + @ X X ; y m.kXsXfX0XgXyXyXyX4XrXrXyXyXeX(.eXuXrXDXY.P.",
"s a s p { ~.Y.F.F.F.F.F.F.P.P.P.P./ r W C n Z J v K b ; - @ X $ X $ + . X $ X O % m.8XrXsXjXgXtXrXfXfXyXyXuXrX0XwX(.wXyXyXVXGXF.",
"f s s s p k.T.F.F.F.F.F.P.P.P.P.P.~.r L A n Z J M F 2 = # $ + X $ . X $ @ X X o   6.2.5XfXrXtXtXfXsXfXyX0XuXrXgXrXuXyXwXcX=XBXF.",
"p p p p p a J.P.P.F.F.P.P.P.P.P.Y.A.C.c L Z 3 V v L 1 # % $ X @ X X X X @ @ @ o & ' q.lX7XyX0XuXrXfXyXrXwXuXrXsXsXgXyX7X6X0.iXH.",
"x.x.d. .{ a g J.P.F.F.P.P.P.H.H.^.GXGXr N L n n B L 1 - % $ X X X X O O X @ @ o 5 0.&.$.E.nXyX0XrXyXyXyXuXuXfXsXjXsX5XbXr.` pXH.",
"U.G.Y.T.~.K. . .P.F.P.P.P.L.T.S.pXpXBX;XC R n A Z K 3 = - # X X @ X O o O X @ o & ' %.%.5XyXrXgXuXwXyXyXwX0XrXsXfXrXyXW.#.>.kXY.",
"U.G.F.P.P.P.P.A.A.F.P.L.J.p.d.d.d.d./.aXm.Y C N M Z b = ; ; X X @ @ o o o X @ . x 0.o.;.zXbXrX0XwX(.rXuXuXyXfXfXfXyXnXQ.$.0.R.H.",
"U.G.F.F.F.F.F.F.F.P.P.J.p.p.d.d.d.d.B.C.%X/ Y A m G ~ : : ; @ @ @ @ O o X X + . h 7.%.-.t.7XuXuXwX(.uXgXyX0X7X7X4X4Xr.e.+.0.^.Y.",
"T.H.F.F.F.F.F.F.F.P.J.p.p.d.d.A.G.G._._._.#XD A m G ^ , = ; # @ @ @ O o X X + . % ..#.*.r.bXyX0XeXeXgXfX4X7XcX6XvX!.%.$.-.` kXD.",
"g.T.P.F.F.F.F.F.F.P.p.p.p.P.XX X X X|.|.|.].Z.V Z V S 3 = ; # @ X X O X @ $ X X < l #.+.4.zXbXnXuXrXjXjXyXvXvX!.6Xq.&.+.,.` pXD.",
"i x.L.H.H.H.H.P.P.A.p.A.XX.X].].].].|.|.|.|.$XV ^ M V ! = ; # @ X O O X @ @ X X y T } $.#.r.E.3.7XrXfXbX7X!.r.#.1.#.&.>.9.).D.`.",
"f [ ~.L.P.Y.H.P.P.v.p.XX|.OX{.].].].].].|.|.$XA L G v ^ 1 = = # $ . . O X @ @ 1 F t | 1.o.$.%.#.E.bXr.r.t.+.;.@.$.-.&.` 2XD._..X",
"p i ] K.I.P.P.P.P.v.v.XX|.OX{.].].].].].|.|.$XV Z L v F ~ : = - # $ $ X $ @ - ~ n C l | 3.;.%.%.2.t.#.+.;.@.@.@.+.%.' 2X^.D.`.|.",
"| | | | v.P.P.Y.P.A.v.XX].].].].].].].].].|.@XN m L G 3 F S , = # - # - @ ; S n m Y P k [ #.%.@.>._ %.o.-.-.%.9.>.0.*Xf.d.F..XOX",
"U.T.L.I.S.P.P.Y.Y.P.p.F..X].].].].].].].].].Z.n N G L A v V F 3 > ; ; : 1 F S m ^ m N r l | 2.q.3X3X0.>._ >.<.` 2X[.`._.a.`.|.OX",
"G.G.H.P.P.Y.Y.Y.P.Y.S.p.D..X].].|.].].].].].<Xn V W K K Z N m F F F F L K N 3 W V v Q G I l V.sXCXJ.P.iXtX7.' =XoX.X|..X`..XOXOX",
"G.G.H.F.Y.Y.Y.Y.Y.P.P.A.p.p.A.XXXX.X].].].].&Xr K N J G G E N M m m v Z E n I W v L H B G I 9XZX>XHXF.P.T./.;X%X|.OX|.|.|.OXOXOX",
"Y.H.F.H.Y.Y.Y.Y.Y.F.F.F.I.v.p.p.v.D.'.].].].~ n J B N G G G E E G J W M G G G R m F B M K / x.K.GXP.F.P.S.v.oX|.OXOXOXOXOXOX].].",
"R.P.P.Y.Y.Y.Y.Y.P.F.F.F.P.L.J.p.p.v.'.].].}.n N E B B R G R G G E G J Z G E G E V m Q m D <XT.T.Y.F.F.F.A.F..X].].].].].].].].].",
"p.Y.Y.Y.Y.Y.Y.Y.F.F.F.F.P.v.p.p.A.XX].].].#Xr G J G M G R A R G B L A Z M R J N n n G R D GXU.U.H.H.F.F.A.[..X|.].].].].].].].].",
"p.D.Y.Y.Y.Y.Y.Y.Y.F.F.P.v.p.p.G..X].].].].@XF J J B m A A A A G M G K Z m B G Z m n A A D GXU.U.H.H.H.H.A.[.].|.].].].].].].].].",
"Y.Y.Y.Y.Y.Y.Y.Y.Y.Y.F.A.p.p.G..X].].].].].<XD J H M M M N W J W Z v G Q Z v A J c c K W S <XU.H.Y.H.H.H.A.[..X|.].].].].].].].].",
"Y.Y.P.P.Y.Y.Y.Y.Y.Y.T.p.p.G..X].].].].].].<XD W L M N v Z J J G W m B J B m R K V c ^ ^ ! <XU.Y.H.H.H.H.A.F.|.|.].].].].].].].].",
"H.H.F.P.Y.Y.Y.Y.Y.Y.S.p.G..X].{.{.].].].].#XD F L m m N W G E G W n B E B M W F n 3 ~ ! &X^.U.U.U.H.F.H.S.A.XX].|.].].].].].].].",
"G.G.F.P.Y.Y.Y.Y.Y.Y.v.v..X|.].{.{.{.].].].].$X( ! 3 1 D D C A A Y n n K c r ~ / &X&X<XGXU.U.P.U.U.H.F.P.T.v.G.XX].].].].].].].].",
"G.G.F.P.Y.Y.Y.Y.Y.Y.v.G.|.].{.{.{.{.{.].].].].}.#X#X#X#X@X;XC.&X/ / ( &X<XGXI.i.A.Y.H.F.Y.H.H.F.H.H.F.F.L.v.v.`.].].].].].].].].",
"H.P.F.F.F.H.H.H.H.H.D.[.].].].{.{.{.{.{.OXOX|.|.OX|..XD.A.A.d.[..X+XOXOX.X_.p.f.P.H.P.H.H.H.F.F.H.F.F.F.D.`..X].].].].].].].].]."
};
