/* XPM */
static char *_c7692db8cd94675e37b00830fc8c270R7ko1SkueB1KED0Y[] = {
/* columns rows colors chars-per-pixel */
"64 64 256 2 ",
"   c #DDDF00",
".  c #B9D00E",
"X  c #DEDE00",
"o  c #91AE14",
"O  c #BACF0D",
"+  c #BACF10",
"@  c #90AF14",
"#  c #B9D010",
"$  c #BBCF0D",
"%  c #BAD00D",
"&  c #DEDE01",
"*  c #BCCF0C",
"=  c #DFDE00",
"-  c #BACF0F",
";  c #DFE000",
":  c #B8D00F",
">  c #284B11",
",  c #284C0E",
"<  c #DFDF00",
"1  c #B7D110",
"2  c #91AF0F",
"3  c #91AE16",
"4  c #DEE001",
"5  c #284A15",
"6  c #BDCE0C",
"7  c #B7CF17",
"8  c #B9CE0D",
"9  c #BDCF0A",
"0  c #B9CF13",
"q  c #8FAF18",
"w  c #91AF12",
"e  c #8EAE1C",
"r  c #2B4D11",
"t  c #B9CF11",
"y  c #2A4C13",
"u  c #DCDE02",
"i  c #BACF11",
"p  c #517600",
"a  c #204203",
"s  c #90AE16",
"d  c #BBCF0B",
"f  c #BBCF0F",
"g  c #4D7900",
"h  c #DBE103",
"j  c #DAE202",
"k  c #BDD00D",
"l  c #8FAF07",
"z  c #8FAE1A",
"x  c #B9D011",
"c  c #DCDF01",
"v  c #BCD109",
"b  c #E0DE00",
"n  c #94B000",
"m  c #4C7100",
"M  c #4E7800",
"N  c #DDDF02",
"B  c #E1DF00",
"V  c #92B010",
"C  c #B8D012",
"Z  c #97AF00",
"A  c #BBCE12",
"S  c #BDD205",
"D  c #E2E000",
"F  c #497000",
"G  c #B8CF0D",
"H  c #93AD15",
"J  c #92AE01",
"K  c #92AF02",
"L  c #B5D01B",
"P  c #507900",
"I  c #517800",
"U  c #DEE100",
"Y  c #E0E200",
"T  c #BBD011",
"R  c #82A31A",
"E  c #8EAD21",
"W  c #BAD109",
"Q  c #BBD009",
"!  c #B8CF14",
"~  c #BBCD0D",
"^  c #90AE07",
"/  c #8EAF23",
"(  c #B6D016",
")  c #DBE10A",
"_  c #DBDF06",
"`  c #A2BF10",
"'  c #D8E106",
"]  c #D8E00D",
"[  c #547800",
"{  c #486A03",
"}  c #B7CE1A",
"|  c #B3D022",
" . c #B6CF22",
".. c #658A04",
"X. c #274B0C",
"o. c #C7DA10",
"O. c #284D0E",
"+. c #91AF11",
"@. c #2D4E01",
"#. c #4E7603",
"$. c #BDCD07",
"%. c #91B015",
"&. c #8DAD2A",
"*. c #82A412",
"=. c #497300",
"-. c #587800",
";. c #B7CF10",
":. c #294C04",
">. c #D8E20F",
",. c #92B10E",
"<. c #AFC506",
"1. c #A1BA02",
"2. c #A5BD07",
"3. c #D5E110",
"4. c #527A04",
"5. c #91B003",
"6. c #BACE17",
"7. c #8EAF0D",
"8. c #97B100",
"9. c #AEC80D",
"0. c #A6B900",
"q. c #B3C808",
"w. c #A9BE03",
"e. c #BECF0F",
"r. c #B6D213",
"t. c #91B00C",
"y. c #AAC516",
"u. c #B4D217",
"i. c #4A6D00",
"p. c #8CAF14",
"a. c #467200",
"s. c #A9C106",
"d. c #91AD1B",
"f. c #A6BF08",
"g. c #BCD418",
"h. c #B9CD11",
"j. c #8FAC12",
"k. c #5C8100",
"l. c #729709",
"z. c #587D02",
"x. c #799B07",
"c. c #4D7401",
"v. c #DDDE03",
"b. c #DEE106",
"n. c #CED905",
"m. c #BCD20F",
"M. c #6C8B00",
"N. c #B5CB11",
"B. c #D6E40A",
"V. c #8AA702",
"C. c #224400",
"Z. c #B7D00C",
"A. c #93AF14",
"S. c #254803",
"D. c #BACC0F",
"F. c #37590C",
"G. c #93B019",
"H. c #ACC60D",
"J. c #93B113",
"K. c #2A4C18",
"L. c #98B401",
"P. c #294A1C",
"I. c #92AF18",
"U. c #B9D114",
"Y. c #B9D017",
"T. c #B6D11A",
"R. c #2B4D0C",
"E. c #C4D917",
"W. c #B5C601",
"Q. c #C3CD00",
"!. c #CAD80C",
"~. c #9BB302",
"^. c #B2C505",
"/. c #9EB601",
"(. c #91B31C",
"). c #537403",
"_. c #A4BE11",
"`. c #698B01",
"'. c #6C8F03",
"]. c #7E9E12",
"[. c #E0E004",
"{. c #9BAE00",
"}. c #56781F",
"|. c #AEC50F",
" X c #CBDA0D",
".X c #BFD00A",
"XX c #BFD20D",
"oX c #4C7A00",
"OX c #93AA00",
"+X c #789600",
"@X c #6A8700",
"#X c #90B01E",
"$X c #9DBD21",
"%X c #729004",
"&X c #638500",
"*X c #88AF1D",
"=X c #416F00",
"-X c #456C00",
";X c #4F7E04",
":X c #B5C300",
">X c #90AF28",
",X c #8DAE0C",
"<X c #BACF0A",
"1X c #C0CF03",
"2X c #D0E315",
"3X c #7D9D00",
"4X c #95B40A",
"5X c #496A14",
"6X c #8CAA03",
"7X c #92A700",
"8X c #2E5103",
"9X c #81A124",
"0X c #658B02",
"qX c #A8C31D",
"wX c #98B61B",
"eX c #8DAE14",
"rX c #9FBD13",
"tX c #80A001",
"yX c #A1C119",
"uX c #6D8E10",
"iX c #5F8B01",
"pX c #DBDC00",
"aX c #84A323",
"sX c #97AE00",
"dX c #99B914",
"fX c #7FA12D",
"gX c #6D8E1D",
"hX c #1A3D00",
"jX c #5B7E00",
"kX c #AEC91F",
"lX c #B9D424",
"zX c #648100",
"xX c #BDD521",
"cX c #426400",
"vX c #7AA10B",
"bX c #5C7C10",
"nX c #6C8C2B",
"mX c #BCD313",
"MX c #B0BF00",
"NX c #D0D501",
"BX c #44681F",
"VX c #5C7E0D",
"CX c #8AA300",
"ZX c #507316",
"AX c #8EAD05",
"SX c #769621",
"DX c #3E5F16",
"FX c #97B317",
"GX c #779914",
"HX c #88AB20",
"JX c #6F9303",
"KX c #8FB130",
"LX c #CED705",
"PX c #74942C",
"IX c #CEDD14",
"UX c #8BAB35",
/* pixels */
", r > > > > , F.}.}.}.}.BX, > > O.O.y r R.r r r r r r r r r r r r r y K.K.y y y y y y y y y C.nX/ V t.2 2 2 t.e PXC., > > a C.SX",
", r > > > > > , BXBXF.F.F.> , , > > K.K.a a y y r r r r y y y K.P.P.P.P.y O., y y a a a P.y C.fX#X,.t.2 2 +.w s e VXa a @.{ 8XGX",
"r , X., > > > > , , , > > > , , > > a @.5X5X@.C.R.r r y y y y r a a a y , O.y O.C.ZXnX5XC.C.8X&.%.,.2 2 2 +.o o +.E F.5XUX&.&.E ",
"O.X.X., , > > > > > > > 5 5 > > > :.i.aX/ / aXbXC.r y y y r C.@.bXVXi.C.a P.P.a { &./ &.gXS.i.&.%.,.w w 2 2 w o 3 z GX&.E z d.z ",
", X., , , > > > > > > 5 5 5 > , :.{ >XJ.,.,.J.>XnXC.r K.K.R.@.fX>X#X/ fX5Xa y C.9Xq ,.,./ %X-./ %.V o o w +.w o 3 3 @ w w o 3 3 ",
"O.X.X., , , > > > > > > , , , :.8X9X#X%.J.J.J.#X>XbXa K.P.a gX>X#XG.I.#X/ gXC.8XR %.,.,.%.I.*.%.V V o o 3 3 o o 3 3 o o o o o o ",
"O.X.X., , , > > > 5 5 > , :., @.z.e G.%.V V J.G.G.aX@.K.K.@.aXG.G.G.A.V V #XfX)./ %.V V V V V V V %.o o 3 3 o @ o 3 o o 3 3 o o ",
"O.X.X., , , > > 5 5 5 > :.:.X.@.R @ o o V ,.2 +.+.E ZXhX5 DXR 2 o o o o +.s &.R R e q @ w o o o o o o o s @ @ @ @ @ @ s s @ @ @ ",
"O.X.8X:.S.S.R.r 5 S.:.F.}.}.@.{ E +.o o ,.,.2 2 2 e gXhX5 DX/ t.o H o o s *...I I I ..*.q 3 H H H 3 o @ @ @ @ @ @ @ @ @ @ @ @ @ ",
"O.:.S.cX).F.S.X.K.R.{ 9XE E R R s o o w 2 t.2 2 2 q 9X@.> DX&.t.o 3 o s l.F F F F M M F l.e 3 H H H o @ @ @ @ @ @ @ @ @ @ @ @ @ ",
"R.:.VXKXKX&.PXF.S.S.9X@ 2 2 2 @ 3 3 o o 2 2 2 2 2 @ / cXhX@.R t.o 3 s *.F ..q $X*.P g g F R z H H H s @ q q q q @ @ @ @ @ @ @ @ ",
"hXZX&.q q z E UX@.{ e V w o o 3 d.d.3 o w +.2 2 2 w q -.-.9Xz 2 o z / [ +X .L Y.L rXP g M ..z o H o @ q e e R E z @ @ @ @ @ @ @ ",
"S.fXe t.2 +.w d.SXSXz 2 w 3 3 d.d.d.3 o o o @ s z z e e E e w +.s e ..[  .T k k k ( $XF M M *.o o 3 z e '.k.p k.l.e q @ @ q q e ",
"{ &.q 2 +.w o I.E E 3 w w @ 3 d.d.3 o w s e E 9XuXuXuX&.e s w @ z *.m $XY.v v v v U.| `.F M l.s s z / k.p p p p p R q @ @ q E l.",
"z.#X@ +.w o o I.s s z z q q s 3 o w +.@ q *.[ cX-.-.cX-.*.q w @ e %XM.| U.v v v v % Y.t.F M ..e q e k.p #.#.#.p p '.z @ q *.k.p ",
"'.#X@ w o o @ %.%.q E ].].e s o 2 2 7.p.*XP -XtX . .V -.-X*.J.FX#X).K ( # % % Q Q % $ _.I M [ e e ..m P P P P P P 0XI.I.x.[ [ [ ",
"e q @ o o o @ %.(.*.jXm m k.].eX7.7.7.p.iX=Xl.| Y.T xXyXz.I j.J.*.k.L . . % % % % Q 9 } [ M I *Xx.i.-.`.4.4.P oXP [ #XM.m [ [ I ",
"q @ @ o o j.j.q / &X=.=.=.=.=.l.p.7.p.vXoXoXyXU.T T A xXwX{ '.(.x.JXL . . . . . . % 9 7 0Xg P GX[ M._. ._.`.a.g g ....m p p p p ",
"@ @ o o o j.j.q R i.k.*X*Xk.=.=.l.p.p.l.=XiXu.v k k k h.lXtXi.HXx.V.( . . . . . . % 9 7 x.-Xg P `. .A e.6._.=.g g g M M I I p p ",
"@ @ o o o o j.(.l.).yXT.T.| tXc.=.vX*X0X=XvXT.v k k e.6 A  .c.'.x.rX( . . . . . . % 9 } p.-XM [ _.A e.e.e. .P g g g g M M M I p ",
"@ s o o o o j.wX@X%XY.v v W T.7.c.k.*XiX=Xp.T.v k k 6 6 6 } vXc.+XkX( . . . . . . % 9 } eX-X-XeX7 9 .X9 e. .4.g g g g P I I I I ",
"q s 3 o o o j.wX@XV.Y.v v v W U.5.c.iXiX=XyXU.v k k 6 6 6 6.kXp +XlXC . . . . . . % * 7 p.-XM. .0 * .Xk e._.4.oXg g P m m m I M ",
"z z z 3 3 H A.FX@XH Y.S v v v W u.7.-XM P yXU.v k e.e.k ~ h.lXM.+XxXC : . . . . . . d 7 p.i._.! - d k k T ` =.oXg m `.z $Xx.[ I ",
"e E E E d.H H FX@XH 7 W Q Q Q . 1 | x.i.jXqXU.v k T e.e.~ D.g./.CX7 C 1 : . . . . . % 7 l M.7 # % d * $ ! l =.g [ 2  .6.6. .x.F ",
"].uX&X@X%X].j.H ].3X7 W Q Q % . 1 ( y.zX-.kXC W k 8 h.h.D.D.g.q.2.g.: 1 : . . . . . % C n ` C % % d * i L 3X=.0XrX} 6 $.$.6.$XF ",
"p p #.I m m `.HXR @X7 % % % % % . # g./.zXkXC m.T T g.T N.N.k XXd k m.. . . . . . . % x f.( x % % O d ! | -.M.| 7 A 6 6 $.6.$Xm ",
"p #.M c.#.z.F jX].&X .. % % % % % G q.Y.CXf.U.m.U.x N.f.2.s.q.v .X<XQ . . . . . . . . . x x . % % % d C 5.M.L 0 $ 6 6 6 6 6.eXm ",
"#.#.4.4.4.4.4.4.4.z.^ U.. % % O 8 8 h.N.N.N.T mXN.s.6X6X6Xl 2.N.XX9 % . . . . . . . . # # # # . . . % t n 7 t f * 6 6 6 6 } x.a.",
"#.#.p m i.F #.P =.F M.lXC % % O - 8 8 8 8 8 # mX9.Z /.` 4XV.AXs.XX.X% . . . . . . . : : : : : : . . . . # . $ * * 6 6 6 6  .[ M ",
"#.p zX+XtXM.).i.#.z.m qXg.. % % - + + + - T U.C OXq.o.2XZ.L.V.4Xh.k % . . . . . . . : : : : : : : . . . . . $ d * * 9 f 7 K m M ",
"#.p wX .xXN.qXj.&Xm { 6Xg.. % O - + T T T T 7 /.0.IX' B. X<.AXAX9.8 % . . : : . . . : 1 1 1 1 : : # . . . . $ $ $ * * t  .M.m ..",
"p &X .A f A 6.}  .^ z.jX( . % $ f A A A A 6.} sXQ.j h h ' !.8.V.2.h.8 8 ;.;.;.;.G G G Z.Z.Z.Z.;.;.G . . . % O $ $ $ $ 7 dX{ l | ",
"#.&X .* 9 9 9 * $ 7 | 3X8.% % $ f A A 6.6.6._.~.) Y 4   4 ] 2.V.2.h.! w.f.f.f.f.;.;.G G G G ;.;.G G . . - - O O $ f - 7 +XdXL ! ",
"m -.y.+ * 9 9 * d % C C W Q % $ f A 6.6.6.} 2.w.h U 4     ] |.V.y.y.~.J J J ^ ^ L.7 G <X<XG G G G G % - - - - O O - t f.f.L ! t ",
"c.i.^ 7 f 9 9 * * Q Q Q Q Q % O f 0 } ~.K _.~.8 j U 4     ] D.7X8.7XsXw.w.2.^ ^ ^ _.! 8 ;.7 7 7 ! 8 + - + + - - - + t 0 0 t i + ",
"..{ z.| 0 9 9 * * Q Q Q % % O + t 7 4X7.7.l K 8 j U 4     ] E.7X7X^.!.] ' 3.w.J J _. ._.4Xl 7.l ` } 0 + + + + + + + i i i i + + ",
"HX0XF p.L $ * * * d d d % % + i 0 H.5.5.l K K <X' ; 4     ' !.7X$.3.h U U h E.sXJ 4XJ J ^ 7.,X,Xl _.! + + + + + + + + + + + + + ",
"uX..;Xz.y.0 f * * d $ $ O - + 0 ! H.n f.<X/.Z ~ ' 4       h LXQ.] h U U U h !.sXJ ^ sXsX~.J ^ ,X^ ` ! + + + + + + + + + + + + + ",
"c.=.;Xa.'. .0 * * $ $ f - + i 0 ! H.Z 2X3.>.w.$.h 4       c h h 4 4 U U U h !.{.sX~.8 o.o.E.L.l l ` 7 + + + + + + + + + + + + - ",
";X;X;X;Xa.p.7 * d $ f f i i i t ! <.s.B.j h ] Q.c           c c       4 4 h !.{.W.3.' ' ' 3.E.K l ` C - - - - - - - - - - - - - ",
"a.a.a.a.a.m y.! f * f f i i + t C <.MX' U <   c N                       4 h n.n.j h h U U ' o.K K ( C O O O O O O O O O O O O % ",
"rXrX5.3X'.m jXy.0 * f i i + . . C % MX>.4 <   & & &                     4 4 h h h h U U U ' E.K 2.;.. O O O O O O O O O O O O O ",
"r.W C L | qX3X3X0 * + 0 ! 7 ( H.H.H.w.3.4 < = & & &                       4 4 4 U U U U 4 ' 8 ~.h.~ O O O O O O O O O O O O O - ",
"1 v d + 0 0 ! <.^.$ + 7 y.K 5.5.5.5.n 8 ] = = & & &                         4 4 4 4 4 4 4 ' W.h.~ ~ $ $ $ $ O O O O O O O O O . ",
"1 v 9 9 9 9 * * $ + ! y.K K 5.5.5.n n {.] = X X X                   N N N     4 4 4 4 h ] !.$.~ ~ ~ * $ $ $ $ O O O O O O - x # ",
"T.k * 9 9 9 9 * $ ! y.K K n n <.W v 1XQ.Q.                          N N N           c ] E.<.h.D.~ ~ 6 $ $ $ $ $ O O O O $ t ( q.",
"t.L + * * * * $ - ! K K Z + 2XB.B.B.j h 4                           N N N N         c Q.sXJ |.N.D.D.6 $ $ $ $ $ $ $ $ $ $ + 9.W.",
"i.dX7 % % % % + i <.Z <.3.) _ _ _ _ 4 4 4 4     u                   & & & & &       ; LX1.K l _.D.~ 6 $ $ $ $ * * * * $ O O W. X",
"4...| 7 ! x # t 0 0.Z 2Xh D b = = & & < 4 4 4         u             & & & & & X X   ; h o.K l ^ |.D.* d d $ $ $ + i t t C q.1X) ",
"a.-XzXqX} t x t 0 0.0.3.4 D b = = & & & 4 4 4 4       u u           & & & & X X X = D 4 3.w.l ,XJ } i d d $ $ x ( L | L L q.LX4 ",
"JXJX%X%X1.t x x 0 <.0.3._ < = = = X X     4 4 4 4     u u u           X X X X X X = D ; ] ^.^ 7.^ y.i * $ - C 9.1.n n n n d ) [.",
"r.T.7 } |.t x # x ! Z 8 ] N = = <           4 4 4 4     u u u         X = = X X X = D 4 3.w.l 7.^ _.i * $ C 9.n W. X X1X{. Xb.D ",
"S S % + t x # # # C |.sX:X] _ _ h c           4 4 4 4     u u         X = & u _ N   4 ) o.sXl ,XJ |.A $ t 9.n E.>.) b.) n.>.[.D ",
"v v % - # # # # # t A <.sXsX<.2X3.] pX          4 4 4       u           = v.LX] _ _ ] o.K l ^ J 2.h.6 t L n 9 >.b.[.U b.b.[.D D ",
"T k O . # # # # # f 6 ~ } 1.J sX0.:XNXpX          4 4   4               = u 0.0.Q.!.W.Z 5.l dXy.h.~ * t 9.1.>.b.[.D D D D D < < ",
"g.i t # # # # # - * 6 ~ h.7 y.K sX0.NXpX&                     & & N c   = _ q.CX/.m.q.9.9.u.( ( x O $ - s.8 ) ; < = = = = = < < ",
"sXx x # # # # # - * 6 ~ h.1.J J <.3._ & & X X X X X X X X X X & & v.c   b _ e.V.L.u.1 1 1 1 1 1 : . O O s.o.) ; < X = = X X < < ",
"Z q.x # # # # # # $ 6 h.1.K sX$.] _ N & X X X X X X X X X X X & & v.c c = u !.OXL.u.1 1 1 1 1 1 : . % % s.o._ ; < X X X X X X X ",
"U.x # # # # # # # # f <.K K $.] c = = X X X X X X X X X X X X & & N h 4 b u IXOXL.u.1 1 1 1 1 : : . % % s.o.) ; < X X X X X X X ",
"T T + t # # # # # C ( Z sX$.] c = = = X X X X X X X X X X X X & & N h c b v. XOX/.u.r.1 1 1 1 : : : % . s.<X' ; < X X X X X X X ",
"k k - + # # # # # C H.Z $.] v.b b = = & X X X X X X X v._ _ u v.& N h c b u .XOX1.r.1 1 1 1 1 1 1 : d . 9.s.3._ 4 X X X X X X X ",
"S v O + # # # # # C 1.0.] 4 = b b b = = & X X X X X X _ ] MXNXu v.  _ c b _ ^.6X2.g.1 1 1 1 1 1 1 . $ + ( 1.$.3._ X X X X X X X ",
"v v $ + # # # # # # 1.$.h = b b b b b = = X & & & & _ ] :X{.:X] _   c c X ] w.V.f.mX: : : : : : : . $ f ! 1.0.LX_ X & & & & & & ",
"k A f f - % % % % % q.o._ pX= b b b B B D D b.b.[.b.>.:X^.<.n E.) D Y Y ) Q.OX~.A e.+ : : : : : : G 8 ~ W.LX] u & & & & v.N N   "
};
