/* XPM */
static char *_59e7a14e13a4d68cc4207e735ba28c1rjn4p88mJTdzIR3y[] = {
/* columns rows colors chars-per-pixel */
"64 64 253 2 ",
"   c #050302",
".  c #0B0503",
"X  c #060907",
"o  c #140B05",
"O  c #180C05",
"+  c #1C1309",
"@  c #0E1715",
"#  c #220E03",
"$  c #241507",
"%  c #2C1504",
"&  c #241B0C",
"*  c #2A1C0D",
"=  c #341A05",
"-  c #381A06",
";  c #291E10",
":  c #1B2116",
">  c #3A240A",
",  c #2D2313",
"<  c #2A2B11",
"1  c #322514",
"2  c #362816",
"3  c #342A1A",
"4  c #3A2D1C",
"5  c #39321B",
"6  c #19322D",
"7  c #3D3321",
"8  c #33332B",
"9  c #3C362A",
"0  c #421E03",
"q  c #442205",
"w  c #4A2304",
"e  c #45270A",
"r  c #4C2B0C",
"t  c #532A05",
"y  c #582C05",
"u  c #49340C",
"i  c #59330A",
"p  c #4A2D13",
"a  c #48341A",
"s  c #593712",
"d  c #683807",
"f  c #66350F",
"g  c #743907",
"h  c #432B24",
"j  c #433522",
"k  c #453925",
"l  c #4B3B25",
"z  c #483C29",
"x  c #2A4C06",
"c  c #274A0D",
"v  c #294C0D",
"b  c #2F5109",
"n  c #365809",
"m  c #294B12",
"M  c #294916",
"N  c #345610",
"B  c #3E610E",
"V  c #2B423F",
"C  c #544B13",
"Z  c #77430A",
"A  c #6A4514",
"S  c #774B18",
"D  c #6D5211",
"F  c #47690B",
"G  c #4E7602",
"H  c #4D7901",
"J  c #517701",
"K  c #537A02",
"L  c #577908",
"P  c #466815",
"I  c #536C19",
"U  c #567717",
"Y  c #757011",
"T  c #4C412B",
"R  c #53432C",
"E  c #5A4A2D",
"W  c #4C4736",
"Q  c #564A36",
"!  c #5C4C34",
"~  c #5B5437",
"^  c #71552A",
"/  c #675738",
"(  c #64553C",
")  c #596D27",
"_  c #71722F",
"`  c #3C4847",
"'  c #53544B",
"]  c #625B46",
"[  c #6C5D42",
"{  c #6F5E4D",
"}  c #4E6154",
"|  c #6A624B",
" . c #716346",
".. c #74664C",
"X. c #786A4B",
"o. c #686953",
"O. c #746B52",
"+. c #7C6D52",
"@. c #727255",
"#. c #7A7458",
"$. c #797668",
"%. c #8E3707",
"&. c #863908",
"*. c #874809",
"=. c #98450A",
"-. c #91550F",
";. c #A9570C",
":. c #B15B0D",
">. c #A65D13",
",. c #897011",
"<. c #AF6C16",
"1. c #A66918",
"2. c #8E4F32",
"3. c #8E6C31",
"4. c #AD752B",
"5. c #C6711B",
"6. c #C97D29",
"7. c #D47E27",
"8. c #887349",
"9. c #947A49",
"0. c #8E7650",
"q. c #847759",
"w. c #857A5C",
"e. c #A56052",
"r. c #857D62",
"t. c #588006",
"y. c #5C8204",
"u. c #668907",
"i. c #6F9109",
"p. c #769709",
"a. c #668618",
"s. c #718C15",
"d. c #789817",
"f. c #7FA01B",
"g. c #678526",
"h. c #78872D",
"j. c #779822",
"k. c #798749",
"l. c #7F8376",
"z. c #8B8D10",
"x. c #8D9715",
"c. c #959815",
"v. c #A69113",
"b. c #8BA90A",
"n. c #92AF04",
"m. c #91AF0E",
"M. c #8FB00A",
"N. c #97B305",
"B. c #9BB504",
"V. c #93B10D",
"C. c #86A615",
"Z. c #8DAC15",
"A. c #83A41B",
"S. c #8CAC1A",
"D. c #91AF14",
"F. c #91AE15",
"G. c #9CAD13",
"H. c #91AE1B",
"J. c #92B113",
"K. c #9DB814",
"L. c #92B01A",
"P. c #B1AE0E",
"I. c #A3BB05",
"U. c #A9BD03",
"Y. c #A4BE0B",
"T. c #A5BD16",
"R. c #8B9632",
"E. c #B58032",
"W. c #86A521",
"Q. c #96B227",
"!. c #96AC32",
"~. c #A6B826",
"^. c #D4842C",
"/. c #D78A34",
"(. c #D3903C",
"). c #ABC208",
"_. c #ACC40B",
"`. c #B4C606",
"'. c #BBCB06",
"]. c #B4CA0D",
"[. c #BBCF0D",
"{. c #BDD107",
"}. c #BAD00D",
"|. c #ABC413",
" X c #A9C416",
".X c #B4CC13",
"XX c #B3C916",
"oX c #BACF11",
"OX c #B9D010",
"+X c #B8D116",
"@X c #B4C628",
"#X c #C7C907",
"$X c #C5D50B",
"%X c #CCD708",
"&X c #D7DB06",
"*X c #DDDE01",
"=X c #D3DC09",
"-X c #D0D712",
";X c #E0DE00",
":X c #DDE003",
">X c #D9E008",
",X c #E1E001",
"<X c #CACD26",
"1X c #878959",
"2X c #998459",
"3X c #8C9451",
"4X c #B48D4E",
"5X c #A58657",
"6X c #99A943",
"7X c #96A651",
"8X c #B6B55D",
"9X c #888467",
"0X c #978B69",
"qX c #8E8A75",
"wX c #999477",
"eX c #A89467",
"rX c #B3986B",
"tX c #B7A579",
"yX c #CC974D",
"uX c #D0A657",
"iX c #E5AB5A",
"pX c #E7AC5A",
"aX c #CEAF72",
"sX c #DFC37B",
"dX c #7C8386",
"fX c #909087",
"gX c #B5AD88",
"hX c #B1AC8F",
"jX c #B7B7B0",
"kX c #C5B98F",
"lX c #D4BD85",
"zX c #DBC58B",
"xX c #D5C896",
"cX c #E5C486",
"vX c #EED596",
"bX c #CBC5A5",
"nX c #D7CDA7",
"mX c #D4CDB1",
"MX c #DBD6B7",
"NX c #E5D9A9",
"BX c #F2DBA3",
"VX c #E1DCBD",
"CX c #F2E3A8",
"ZX c #EAE4B7",
"AX c #F4ECB4",
"SX c #FAF4BB",
"DX c #D5D4CB",
"FX c #E4DEC1",
"GX c #EAE6C8",
"HX c #F2EDCD",
"JX c #F4F1CC",
"KX c #F7F5DA",
"LX c #FBFBEE",
/* pixels */
"v m m m m m v N I U U I P N m m c v m m c c m m m m m m m m m m m m m M m m m m m m m m m m b g.W.J.V.V.m.m.J.S.j.n c c c x b a.",
"v m m m m m m N B P B B N m m m m m m m v v c m m m m m m m m m M M M M m v m m c v v v m c n j.S.J.V.m.m.F.F.Z.A.L v v n F F s.",
"m v c v m m m m m N v m m m m m m c v n P P n x v v m m m m m v v v v c c m m c b I U I b x n j.L.V.m.m.m.F.F.F.F.d.F U j.W.W.S.",
"v c c v v m m m m m m m M M m m v b G d.A.A.d.U n v m m m v v P ) ) I N v M M v F d.W.W.a.n J A.L.J.F.F.F.F.F.F.F.S.d.W.Q.H.H.H.",
"v c v v v m m m m m m m M m m v b G d.F.J.J.F.W.a.n c m M m T ~ l T ~ _ I N c b s.S.H.Q.S.i.u.A.J.J.F.F.F.F.F.F.F.F.Z.F.F.F.F.F.",
"v c c v v v m m m m m m v v v x B d.S.J.J.J.J.L.W.U v M M 5 1 * * * C W.A.a.n B d.F.W.) _ W.C.Z.J.J.F.F.F.F.F.F.F.F.F.F.F.F.F.F.",
"v c c v v v m m m M M m v v v b L A.L.J.J.J.J.L.H.d.n m M > = = = e D J.J.S.s.a.A.J.J.I * C Z.F.J.F.F.F.F.F.F.F.F.F.F.F.F.F.F.F.",
"v c v v c c m m m m m v b b v n d.Z.F.F.J.V.J.F.J.A.U c < > - = 0 y -.F.F.S.A.d.d.C.Z.s.& > z.F.F.F.F.F.F.F.F.F.F.F.F.F.F.F.F.F.",
"v v x x x x v m m v b P U U F L A.F.F.F.m.V.m.m.F.S.a.b > e e - w g :.c.C.d.u.L L L Y Y $ = ,.H.F.F.F.F.F.F.F.F.J.F.J.J.F.F.F.F.",
"v x b F L F n v m b F d.A.A.d.d.Z.F.F.F.m.V.m.m.F.S.d.P r r e > w g :.>.Y D A f g g &.&.f - -.v.F.F.F.F.F.F.F.F.J.F.F.J.F.F.F.F.",
"v n U j.W.j.g.P x n s.Z.F.F.Z.Z.F.F.F.F.m.m.m.m.F.F.A.I s i e > e d ;.:.&.g &.&.%.%.%.=.=.&.=.v.F.F.F.F.S.S.S.S.F.F.F.F.J.J.F.F.",
"x U f.S.L.S.W.j.F L A.J.F.F.F.L.H.Q.Q.Q.Q.L.J.F.F.J.C.Y f s r e > s =.;.%.%.%.%.=.=.=.=.=.=.=.-.x.F.F.S.C.C.f.A.C.Z.F.F.F.F.F.F.",
"n j.S.Z.F.F.F.S.d.d.S.F.L.Q.6X7X3X1X1X1X1X3X3X6X!.S.S.z.S A s r > p &.=.&.&.=.>.1.1.>.>.;.:.;.=.-.x.S.C.i.u.y.u.p.C.F.J.J.J.S.S.",
"L W.S.F.F.F.F.H.S.S.H.Q.6X3X9X$.#.#.#.#.#.O.O.O.#.3XR.R.-.S s p e w g &.*.4.4XuXuXuXyX6.<.5.5.<.;.1.W.u.K J J J y.d.S.J.J.Z.C.p.",
"u.C.J.F.F.F.F.F.Z.H.!.7Xw.#.r.r.w.9Xr.w.w.w.#.O.| | O._ 2.S s p p y g 1.4X4X5X5XrXaXaXiX(.^.7.5.<.6.R.J J G G J K i.C.J.Z.d.u.K ",
"p.Z.F.F.F.F.F.J.L.!.7X#.O.w.9Xw.#.w.w.w.#.+.O...O.| ~ ! S S s p t g 3.9./ R Q ] ( 5XaXcXpX(.^.7.6./.aXL J J H H J u.C.C.p.y.K J ",
"S.Z.F.F.F.F.F.J.Q.3XO.| #.w.w.w.q.q.q.+.+.X.[ ( ( ( ~ Q s S s r d 3.8.k o.hXDXKXjX+.5XcXsXiX/.^.^./.uXs.y.K H H J u.d.i.K J J J ",
"S.F.F.F.F.F.Z.Q.7XO.]  .#.q.w.w.w.q.+... .[ ( Q R R R T p i i y ^ X.3 $.DXDXHXLXLXDXr.aXcXpX/.^.^./.uX~.J.i.H H J y.u.K J J J J ",
"F.F.F.F.F.Z.F.6X1X~ ~  .X...q.w.q.q.X. .[ ( ! R z z j j e w t A 8.z ' jXDXmXfXl.jXLXmXrXcXsX(.^.^./.4.I ~.V.t.H H J J G J J J J ",
"F.F.F.F.F.F.Q.7X| T ! [  . .+.q.q.X...[ ( ! R l j 7 4 4 > 0 t ^ 0.3 qXjXjX' @ ` 8 fXMXrXcXsXiX^.^./.2X` ) T.y.H H H H H H H J J ",
"F.F.F.F.F.F.Q.3XQ k Q ( [  .+.+.q.X.[ ( ( R l j 4 2 1 , - 0 i 3.0.9 fXjX$.X : dX} 8 hXeXlXvXiX/.6./.0X} 5 K.u.H H H H G G J J J ",
"Z.F.F.F.F.F.!.1XT j T ! ( [ X.+.....[ ! ! R j 4 2 , ; ; = w s 3.2XW fXjX' X     X @ 9X0XlXBXsX(.6.yXR   : C.u.H H H J K L K J H ",
"S.S.H.H.F.F.!.#.z 4 j T ! [  .....[ ( ! R l a 4 1 ; & $ % w A 9.tX .$.hX} @ X   X @ { 0.lXAXvXyX6.yXQ X < b.t.H H K i.C.F.p.y.J ",
"S.S.C.C.Z.F.6X#.k 3 4 k R ~ /  .[ ( ! R l j 4 1 , ; + + % r ^ 9.aXkXq.qXl.V 6 6 6 @ [ eXxXSXCXiX4.yX#.6 ) C.K K u.C. XXX.X Xp.J ",
"d.i.u.u.i.d.!.#.k , 3 7 z Q ( / / ! ! R l 4 1 1 ; & + O % r ^ 2XtXzXxXtXwXl.} } o.0XaXzXCXJXAXaX4.4.aXgXxX6XL i.J.XXoX[.[..XF.L ",
"K K J J J L R.#.k , , 3 j R ! ( ( ! R l j 4 2 1 ; $ + o $ i ^ 0.eXaXvXCXAXZXZXZXAXSXSXAXZXZXNX5X2.2.rXSXZXaXd.T..XoX[.[.[..XL.L ",
"J G G G J L h.#.Q 3 & , 4 l R ! ! E l k 7 4 1 ; & + O o # u ^ 0.eXaXzXvXCXSXSXJXJXJXSXAXZXNXxX .2.e.e.JXZXxX@XoX[.[.[.[.[..XC.L ",
"G G J J J K g.k.@.Q , & , 5 z R E R l j 4 1 , * + + o o o e / 8.2XeXtXlXxXNXCXAXAXNXxXkXkXgXgXw.! / kXAXAXzX+X[.[.[.[.[.[.|.p.J ",
"G G J K J J L g.k.@.Q z 3 2 j l R R l j 4 1 * & + O o o . $ l / +.w.0XeXtXgXgXgXtX0X@.| $.qXqX9X] #.gXkXkX8X.XoX[.[.[.[.oXT.u.G ",
"G K u.p.p.i.u.L U g.g.!.h.k 4 j l l j 4 2 1 ; & + o o . . . $ a /  .+.w.9X0X0X9X9X#.o.W 9 W ~ z Q 9XwXwX8X@XoXoXoXoX[.oX.Xb.K J ",
"G y.Z. XXX|.K.C.i.K K b.XXR.4 7 l k j 4 1 , * + O o o . .   o $ * a E / ..O.@.@.@.@.@.o.W 3 h ] 9X9X1X6X@XoX.X.X[.[.[.oX Xi.y.u.",
"J u. X+XOXoX.XXX Xb.u.p._.T.T 4 k k j 4 2 , & + o o . .     O # # # $ 1 j W ' ] | o.@.@.@.@.#.1X1XR.T.oXoX.X}.[.[.[.}..XJ.i.b. X",
"J i. XoX[.[.[.[.[..XT.b.I..X) 3 j k 7 4 1 * & + o o . .   o % % = % % % , 5 T ' ] o.o.o.o.k.R.~.].].}.}.[..X.X[.[.[.oX|.b.J.|..X",
"G u.K.oX[.[.[.[.[.}.oX].].}.h.3 5 7 7 4 1 ; $ + o o .     # - 0 q q > e a T Q ] o.o.] R _ XX[.}.}.].}.[.oX[..XoX[.[.oX_.Y.XX.XoX",
"G K b.XXoX[.[.[.[.{.{.{.{.}.R.3 3 7 4 3 , * $ O o . .   . % w t y y i s E ( O.#.r.#.] p Y .X.X.XoXoXoX[.oXoXoX[.[.oXoXoXoXoXoXoX",
"u.K u. X.X[.[.[.[.{.{.{.}.}.R.4 3 4 3 , ; * + o o .     # q t y d d A ^ / ..9XwXwX9X[ i D V.V.V.Y.XXoXoXoXoXoXoXoXoXoXoXoXoXoXoX",
"d.u.t.C.XXoX[.[.}.}.[.[.[.}.!.7 3 3 3 , * & + o o .   . % w t d d Z S ^ ^ +.0XwXwX9X/ i Z z.M.M.V.|.oXoXoXoXoXoXoXoXoXoXoXoXoXoX",
"i.y.K u.K..XOX}.[.[.[.[.[.}.~.T 3 3 4 1 * & + o . .   O % q t y d Z Z A s E 1XwX9X..a y g ,.n.M.V.Y.oXoXoXoXoXoXoXoXoXoXoXoXoXoX",
"J H H J p. X+X}.[.[.[.oXoXOX@X~ 3 3 2 1 * $ O o .   . % % = 0 w t t t t t i A O.] 5 e i g c.Y.n.V.Y..XoXoXoXoXoXoXoXoXoXoXoXoX[.",
"H H H H L C.XX}.[.[.[.oXoXOX@X/ 3 3 3 , * + o o .   O = - = % = - > 2 2 > w w a 9 % q t ,.-X}.N.n.|.oXoX[.[.[.[.[.[.[.[.[.[.[.[.",
"t.t.K J G u.J..X[.[.[.oXoXoX+X_ 3 , , , * + o . . o = q w w q > l Q Q W 9 % = a 9 % - A #X>X$XN.N.|.OX[.[.[.[.[.[.[.[.[.[.[.[.}.",
"J.V.b.p.i.u.p.K.oX[.[.oXoXoX+X3X7 , , ; & + o . . % w y i i i C / O.#.O.] T j ' W 3 p v.:X>XOXB.Y.].}.[.[.[.[.[.[.[.[.[.[.[.[.[.",
"oX].].XX XK.b.n.].[.oXoX.X.XXX6X9 , , , & + o . O w d g g Z A ^ 8.0XwXwXwXwXwXwXwXwX5X1.#X>X].Y.].[.[.[.[.[.[.[.[.[.[.[.[.[.[.[.",
"}.{.}.OX.XoX_.).].[.oX.X|.B.N.R.k , , * & + o . = y g *.*.-.3.9.0XgXhXkXbXmXmXMXMXMXaX4.<.#X'.].[.[.[.[.[.[.[.[.[.[.[.[.[.[.[.}.",
"OX{.{.{.[.[.[.].[.OXoX|.B.n.n.!.W , ; * & O o O w d *.*.-.-.4.eXtXkXbXmXMXGXHXHXHXGXnXuX<.v.[.[.[.[.[.[.[.[.[.[.[.[.[.[.[.[.OX[.",
".XOX[.{.[.[.[.[.[.oX|.B.n.N.I.~./ , ; * $ O o % t d *.-.-.1.4XaXxXmXMXVXGXHXKXKXKXKXZXsX(.1.T.[.[.[.[.[.[.[.[.[.[.[.[.[.[.oXoX].",
"J.|.oX[.[.[.[.[.[.].B.n.I.].$X-XR.4 * & + O o - y g *.-.1.4.uXlXnXMXFXGXHXKXKXKXKXKXJXvXuX1.v..X[.[.[.[.[.[.[.[.[.[.[.[.[.[.].`.",
"u.J..XOX}.}.}.oX[.).B.`.$X=X>X:X<X~ * & + O o - y d Z -.1.E.uXzXNXFXGXGXHXHXKXKXKXKXJXBXaX4.,.Y.].[.[.[.[.[.[.[.[.[.[.[.[.].'.$X",
"J i.K..X.XOX}.oXoXU.I.$X>X,X*X*X*XR.3 $ + O O - t d Z *.>.4.uXzXNXVXGXGXGXHXHXHXHXGXZXvXaX4.,.m._.[.[.].[.[.[.[.oXoXoXOXoX].$X=X",
"H K p.K.XXoXOXoXoXU.U.%X:X,X;X*X*X-X3., + o O - t d g *.-.4.uXlXnXMXMXMXMXVXVXVXMXNXnXcXuX4.,.M.B..XoX].[.[.[.oX.XXXXXXX.X].%X*X",
"p.p.p.b.Y.].OXOXoX).).%X>X*X*X*X*X;X-X3.; o o = w y d Z -.1.4XaXkXbXbXbXbXbXbXbXkXkXaXaX4X1.,.M.V.|.oX[.[.[.].).).I.I.B.I.].=X:X",
"|.|.|.|._.oXOXOXOX].U.].=X*X*X*X*X*X:X-X_ & o % q t y d Z -.4XrXtXgXgXgXgXgXgXgXtXrXrX4X4.-.,.V.V.|.oX[.[.]._.U.`.$X$X'.U.$X:X,X",
"{.{.}.oXoXOXOXOXOXoX_.I.`.%X&X&X>X:X:X:X=Xc.5 $ - w t d g S 3.5XeXeX0X0X0X0X0X0X2X2X9.3.-.S x.M.N._.oX}.oX_.U.}.=X>X>X&X%X=X:X,X",
"{.{.}.[.OXOXOXOXOXoX].).I.I.`.$X%X=X*X*X:X:XP.D - 0 w t d A ^ 8.8.X. . . ...X.X.X.3.3.S Z Y V.N.Y.].[.OX.XU.].=X>X:X:X:X:X:X,X,X",
"OX}.[.}.OXOXOXOXOX[.[.[.].Y.B.I.U.'.%X*X*X*X:X#XC = - q t s ^ / ! l 7 7 k T E / / ^ A d A b.K.|..X[.}.oX_.).%X>X,X,X,X,X,X,X;X*X",
"oXoXoXOXOXOXOXOX[.[.[.[.oX|.Y.n.B.`.%X*X*X*X*X:XP.> % - q i s C Y C C u > , a a C s i d c..X.X.XoX[.[.].).].=X:X*X*X;X;X;X*X*X*X",
"I.].OXOXOXOXOXOX[.[.[.[.].I.N.B.`.%X&X*X*X*X*X,X,Xz.% % > e C P.&X&X&X%XP.C = e r y i c.OXOXOXOX}.}.[.].`.$X&X:X*X*X*X*X*X*X*X*X",
"I.].oXOXOXOXOXOX}.[.[.].I.n.B.'.=X&X*X*X*X;X*X#XP.C = q t s P.,X*X*X:X:X,X#XC > i g Z Y ,.Y Y Y c..X}.].].$X&X:X:X*X*X*X*X*X*X*X",
"oXoXOXOXOXOXOXOXOXOX[.).B.B.'.=X*X*X*X*X*X&X,.u e 0 w w d v.*X*X*X*X:X:X*X:X].D i i y t w w e > r D T.[.`.$X&X:X*X*X*X*X*X*X*X*X",
"OXOXoXoXOXOXOXOXOXOX.XB.I.'.=X*X*X*X*X*X,XP.u - q r r i ,.&X*X*X*X*X:X*X*X&X$XN.z.Y u u > > e e r p x.}.).[.=X:X*X*X*X*X*X*X*X*X",
"}.}.[.oXOXOXOXOXOXoX_.I.'.=X*X*X;X*X*X*X*X#Xz.Y Y ,.,.P.&X&X*X*X*X*X:X*X*X&X'.B.I..X|.T.G.x.x.z.c.G.].[.|.].%X>X*X*X*X*X*X*X*X*X",
"{.{.[.oXOXOXOXOXOX].U.).%X*X*X;X;X;X*X*X*X*X,X*X*X*X:X:X%X'.%X*X*X*X*X*X*X&X`.n.Y.OXOXOXOXOXOXOXOX}.}.OX.X).'.=X&X*X*X*X*X*X*X*X",
"{.{.[.[.OXOXOXOXOX].).'.&X*X;X;X;X;X;X*X*X*X*X*X*X*X&X=X'.U.`.=X&X*X*X*X*X%XU.n.).oXOXOX}.}.}.}.}.}.[.[.].).`.%X&X*X*X*X*X*X*X*X",
"}.[.[.[.[.}.}.}.}.[.].$X&X*X*X;X;X;X;X;X,X,X,X:X:X:X=X'.`.U.U.$X>X,X,X:X&X#XB.B.].oX[.OX}.}.}.}.}.[.[.[.'.$X%X&X*X*X*X*X*X*X*X*X"
};
