/* XPM */
static char *_ab68360b7d044b5c24a4999387a24d8xIJmsjDmhLR5eLVg[] = {
/* columns rows colors chars-per-pixel */
"64 64 256 2 ",
"   c #030203",
".  c #0A0404",
"X  c #050A02",
"o  c #0C0B03",
"O  c #0C0C0A",
"+  c #06050A",
"@  c #120D03",
"#  c #120C0A",
"$  c #170B08",
"%  c #0C1204",
"&  c #0D120A",
"*  c #081808",
"=  c #131304",
"-  c #1B1404",
";  c #1C1B03",
":  c #15140C",
">  c #1A140B",
",  c #1C1B0C",
"<  c #141B07",
"1  c #1B1411",
"2  c #181812",
"3  c #0C0D12",
"4  c #231D02",
"5  c #221C0B",
"6  c #271A05",
"7  c #231C13",
"8  c #281A13",
"9  c #301E07",
"0  c #0C2707",
"q  c #1D2203",
"w  c #1C2E04",
"e  c #172808",
"r  c #0B360C",
"t  c #1C3304",
"y  c #15330C",
"u  c #1B340B",
"i  c #1C3B0C",
"p  c #193906",
"a  c #052611",
"s  c #083A16",
"d  c #1B3412",
"f  c #1C3A12",
"g  c #143817",
"h  c #1A2613",
"j  c #242303",
"k  c #2C2502",
"l  c #242C04",
"z  c #2C2B02",
"x  c #24230C",
"c  c #2B230B",
"v  c #242C0A",
"b  c #2B2C0A",
"n  c #322502",
"m  c #322C02",
"M  c #392C02",
"N  c #31260A",
"B  c #332C0A",
"V  c #253104",
"C  c #2C3203",
"Z  c #24340B",
"A  c #2B330B",
"S  c #233C0D",
"D  c #2A3A08",
"F  c #343203",
"G  c #34320B",
"H  c #3C340C",
"J  c #393908",
"K  c #242411",
"L  c #2C2413",
"P  c #2B2916",
"I  c #322514",
"U  c #322B13",
"Y  c #332B19",
"T  c #3A2C1A",
"R  c #3C2E13",
"E  c #223B13",
"W  c #2A3B13",
"Q  c #283614",
"!  c #333212",
"~  c #3B3414",
"^  c #333C15",
"/  c #3C321A",
"(  c #383819",
")  c #3B3522",
"_  c #343422",
"`  c #003A22",
"'  c #423B0B",
"]  c #42340A",
"[  c #453C13",
"{  c #42361C",
"}  c #443C1B",
"|  c #4A3D1C",
" . c #463814",
".. c #533F1B",
"X. c #432E19",
"o. c #433922",
"O. c #4D3D22",
"+. c #1A440B",
"@. c #0B4315",
"#. c #03451B",
"$. c #0A441B",
"%. c #044B1D",
"&. c #0B4A1C",
"*. c #074315",
"=. c #174719",
"-. c #0A521C",
";. c #18561A",
":. c #154E0D",
">. c #284707",
",. c #37490A",
"<. c #2B5403",
"1. c #255A01",
"2. c #2B5B03",
"3. c #2B530B",
"4. c #275908",
"5. c #345305",
"6. c #34520A",
"7. c #3B530B",
"8. c #335C0A",
"9. c #3B5C0B",
"0. c #375904",
"q. c #2B4314",
"w. c #274718",
"e. c #394717",
"r. c #27561A",
"t. c #3D5313",
"y. c #385517",
"u. c #2C6301",
"i. c #2A6907",
"p. c #346303",
"a. c #336B02",
"s. c #3C6C0B",
"d. c #3A6607",
"f. c #347402",
"g. c #3C7403",
"h. c #3C7C02",
"j. c #3A7809",
"k. c #286812",
"l. c #386618",
"z. c #2E7000",
"x. c #094922",
"c. c #114B23",
"v. c #1A4824",
"b. c #0B5424",
"n. c #075928",
"m. c #165626",
"M. c #2C4D21",
"N. c #245724",
"B. c #395929",
"V. c #394624",
"C. c #086429",
"Z. c #196427",
"A. c #0B6936",
"S. c #1F631F",
"D. c #43450B",
"F. c #44530C",
"G. c #46590D",
"H. c #454312",
"J. c #4B4415",
"K. c #45431D",
"L. c #4D431D",
"P. c #4C4A1C",
"I. c #474B16",
"U. c #54451C",
"Y. c #544B1D",
"T. c #5B4C1C",
"R. c #564718",
"E. c #455313",
"W. c #4A5413",
"Q. c #485817",
"!. c #54531C",
"~. c #5C531D",
"^. c #585919",
"/. c #53490E",
"(. c #614E1C",
"). c #63541D",
"_. c #635C1D",
"`. c #6A561D",
"'. c #46670B",
"]. c #53650E",
"[. c #417502",
"{. c #447908",
"}. c #4A6615",
"|. c #5B6415",
" X c #5B631B",
".X c #556817",
"XX c #487514",
"oX c #567717",
"OX c #55790F",
"+X c #64631E",
"@X c #69671D",
"#X c #66781D",
"$X c #707E1D",
"%X c #4A4624",
"&X c #534423",
"*X c #544B23",
"=X c #5C4D22",
"-X c #5B4C2A",
";X c #574827",
":X c #485825",
">X c #5D5323",
",X c #5C5A22",
"<X c #5E532A",
"1X c #575526",
"2X c #5F5230",
"3X c #624D24",
"4X c #674D2A",
"5X c #645424",
"6X c #6A5624",
"7X c #655B24",
"8X c #6B5B24",
"9X c #65542A",
"0X c #6B562A",
"qX c #655A2A",
"wX c #6C5C2B",
"eX c #715D25",
"rX c #725C2A",
"tX c #715629",
"yX c #6B5D33",
"uX c #745C33",
"iX c #456526",
"pX c #5C6624",
"aX c #586531",
"sX c #556E2F",
"dX c #646223",
"fX c #6C6224",
"gX c #6D632C",
"hX c #676927",
"jX c #736225",
"kX c #73632B",
"lX c #7B642C",
"zX c #7C6B2D",
"xX c #766827",
"cX c #677626",
"vX c #79772B",
"bX c #6B6432",
"nX c #746332",
"mX c #7C6C33",
"MX c #776835",
"NX c #7C7533",
"BX c #826A2D",
"VX c #82732C",
"CX c #826D32",
"ZX c #866F38",
"AX c #857334",
"SX c #8D7C3C",
"DX c #887638",
"FX c #947A39",
"GX c #937B41",
"HX c #877244",
"JX c #3C8101",
"KX c #438403",
"LX c #5E821B",
"PX c #6E8525",
"IX c #6D821D",
"UX c #94853C",
/* pixels */
"-.;.N.m.N.N.v., X + = = : = % : X + 5 , , > , 5 :   2 , ,   + : = > : # = +   5 5 , < 8 5 @   * * = + @ , 5 , , , ,   X 5 , #   ",
"[.cXZXSXAXNXSXDXT , L.U.J.J.H.R.L 8 ZXSXSXcXNXGXbX= nXSXFXL K J.Y.U.H.I.Y., U DXDXDXcXNXGX2X@ M.A.V.O 1XSXDXDXDXSXGXL o.GXSX1X  ",
"{.kX7XlXuX9XDXlX-XN m F J k G A z %XjX8XlX'.F.lXxXo.lXxXmX%Xz H J ,.y.=.] B 1XeXrXCX9.W.BXjXU W %.u T gX`.lXjX_.DXjX*X5XBXmXnX# ",
"[.dX8X+XkX0XfXkX%X4 m C H N f W n ~ gX8X8X X8.5X9XR gXrX9Xe.j n b -.m.b.V ; | fX9X7X}.8.7X9X; ] g w x 5X8XdXkXrXwXxX..L.zX`.-Xo ",
"{.7X0X|.].8X0XCX*Xq ] m z w.b.+.B R wX).8X+Xu.^.8X~ ~.7XdX%Xw m k g x.$.z 4 L.fX>X8X|.u._.9X, z b m j 8X8X.X.X9X0XVXL.} 8XdX1Xg ",
"4.wXpX'.a.^.0XVX| 4 ' F l &.A.&.q o.5X5X6X^.5.>X0Xe.6X}. XK.l z m k g d M j K.4XqX).W.y.(.5Xx z k z 4 wXdX0.p._.wXmX} &X.X'.qXv.",
"c.qXxX2.2.6X0XxX| j ' G m d x.i j Y 5XqX).F.I.5X*Xw.qXa.Q.W.C n m j v b m , / 5X8X~.G.W.9X;X; m F k 5 0XhXu.9.qXqXxX .O..X0.*X4.",
"&.qXrXE.8.wXqX8X%X4 F C M Z *.z N O R / ( q.( } ^ x.q.+.,.{.2.; 5 ; 4 < ; o &  ./ { D T / 5   - - = : ).rXy.6.eXqXeX| : q.>.w.j.",
"c.^.8X).^.8X`.gXO.4 F M m V v m n + P q p :.+.+.=.%.m.%.r.JXXXr.=.0 q 0 h o   h 0 &   7 K q e e e < O 6X8X,X^.8XqXrXK.  g b.&.j.",
"&.5XwXqXwX<XY.jX| j F z B z z m x L DXoXf.g.g.f.pXw.w.A.r.[.cXAXg.j.[.g.XXO.> m.A._ - HXcXf.h.j.g.pXY 5XwX7X7X9XR.nX{ K Z.n.r.f.",
"c.5XqX8XwX>X&XdX,.; m z m n m m q %XlXW.1.1.2.2.8Xy.G $.y ,.bX5X6.2.1.2.F.4XB S #.l { kX!.1.1.5.1.^.| 3XqX8X8X>X..fXe.N +.s G ;.",
"c._.8X8X8X6X~..X>.; n F k z B z k ~ rXqXW.W.E.W.wX=.B E t V >XwX~.7.Q.7.+XU.; ~ y z ^ _.0X!.7.Q.E.8X~ 9X8X8X8X5X~..X+.c G d b $.",
"2 ).8X5X>X8X X'.>.6 m D S t z z j { wX9XwX5X=X7XwXq.k z B V ,X).0X,XqX>X8X;Xj z b k V.wX).8XqX5X>XjX( =X8X5X5XqX.X'.>.4 z V z &.",
". 6XwXqXT.7Xp.p.>.c m V m.m.! m j { 5X5X6X5X3X).8XE.m N k i 1X3X8X~.5XY.7X&Xj m z z w.5X~.qX5XT.T.rX~ 9X8X9XT._.p.8.>.j m m G =.",
"o Y.5X8X3X Xu.p.u , N Z &.#.y m 6 c ).7XT.=XU.=X~.9.k n n y %X4X5X3XU.=X).{ < M c j y.T.9X(.5XY.).T.W.!.>X7X~.^.2.1.8.F M k b s.",
"  5 U N P l t p % X = * r =.s = o   U ^ e.J.e.^ e.f.>.0 e %.=.! e.E.H.P T #   q e >.h.E.^ Y Y U Y e.h.9.U U Y C p i h.p.e 0 <.KX",
"  ; ~ Y Y U X./ o @ ) T q.j.6.7 q 5 h E 9.h.oXB.iXLXLXB.B.%.v.M.iXKXg.T Z w w :.S.XX{.l.w.K 1 x 1 7.JXXXe.w w w e e.{.{.:XB.{.h.",
". yXSXFXVX#XDXUXo.} UXUXNX[.H.H.J.H.K.J.D.{.vXAXSXCXAXFXDXB.aXFXFXPXOXDXoXf.j.[.a.#XXXD.[ J.H.H.J.D.{.vXNXs.h.j.h.oXLX#XDXFXvX{.",
"= wX6XrXdX<.!.nX*X*XmX8XxX'.k z J n M Q l y.wX6XxXfX).CXrX:X_.lXuXfXhX9XQ.4.4.<.2.wXE.z m  .z m D c y.rX~.5.1.<.1.^.>XqXzXjXgXk.",
"o ~.gX8X7X'.t.wX| [ xX5X~.F.k B F B p i J W eX0X+XrXuX8XlX%X!.nX7XP.P.eX8XG.W.W.^.0XW z C M m S i H Z 9XqX>XF.^.t.fX{ P.kXqX*X2 ",
": 9X~.7XtX'.5.kXO.| _.dX,XW H F z i A.=.Z W wX7X.X.X7X8XAX:XP.5X+XY.( 8X3X7XqX=X9XjXq.G J m Q n.b.S E wX(.0X).6XT.nXO.} 8X_.~.$ ",
"=.5X5XqX>X9.E.8XJ.L.dX'.7XZ F J M u n.b.l A gX.Xp.u.,XrXCX{ ;X|.}.=X} 5X9X9X(.T.=X7Xq.F J z u n.n.w >.5X).8X>X=XT.qX| &X X'.9Xo ",
"-.Y.T.>X!.7.>X9XY T .X8.P.l G H z A #.*.N q.8XhX2.7.tX0XjX~ } ].d.} 5 4XqX>X5XY.5X*Xd m ] m z *.s M 5.!.=X9X3XR.~.3XI } ].p.L.X ",
"k.d.F./ c K I c o o V +.g y m z m m g V n D wXwX9.E.qX7XjX) O l w -   I c L N L U 2 @ F m m b s Z n 9.'.~ ! W ( ^ Q   o w t : . ",
"k.OXPX3.t p p W # X c.b.$.d m M z M Z z z E wXrX>XqX6X9XkX~ O g g % + c 5 x x K x > # F m z G l z m 0.j.Z.=.s s w.Q L K 8 L :   ",
"u zXxXa.h.j.f.oX%Xc m.C.e.Z z z B k z m m e.dX8X8XeX~.U.jX .L Z.Z.! K I./.P.J.I.J.[ , m M z z B F z 7.t.n.;.W E J.R.U.J.y./.e.>.",
"# 8X6X6.1.<.1.!.=Xj q.s b Z z z b k m M z W.fX6XqXeX=XU.hX>.n =.s b x m G q.r.;.D m q k M B k z m m >.H =.r A A m F =.r.m.C J KX",
"O 5XrX,XW.,X7.fX| 4 G Z C f n m z k z k k G.gX8X8XqX9X,X}.p k G t c 4 M k f b.n.f c ; k C z N z z m i C A u Z l m n @.m.n.t n g.",
"& 0X(.wX8X4X3X8X:Xk k b C i m G q.i C m z F.dX8X).>XdX}.d.V j k C l 4 F k v g #.v z 5 m z >.u A k n A m k m C v n n l *.#.C F g.",
"O 3X>XfX!.>X=X~.pXD n z b i m j =.n.w.n b F.8X8X8X3X|.p.p.i x m k l 4 z z k v y m k - m k =.n.=.z m d b C n w Z m z l u d n F g.",
"X } ~.5X4X*X=X4XQ.,.k k v g N v &.#.s b z 2.1X=X9X=XQ.u.8.e ; F z 4 = G m m k z z k Z n c s #.s v k g l k k d e n B z n k 6 A k.",
"* & 8 , K b P S g.z.r 0 s x.r a * 4.s X D KXy.7 5 K q 0 0 + . @ o     X o @ : @ o 3.KXp a s s s s 0 ;.3.e y @.s 0 < - = D >.4.-.",
"x.^ ;X*X: O aXsX$XPXsXsXB.#.sXaX*XKX7.L t.].Q.b U X : >X;XX x <X*XY.P.*X1X: + =.x.l.JXhX:X4.k.k.k.l.j.'.e.M.y.e.q.q.  5 vXPXoX%.",
"b.hXFXUX-XO.AXZXCXlXDXFXgXB.CXFXSXoXD.H.J.[ e.e./.K <XAXGX{ <XAXDXDX.XCXFX-Xc ;.n.,.OXAX|.z.g.d.a. XoX,.] J.J ' J.' x *XFXZXvX=.",
"c.dXlX8X-X&X8X_.MX5XxXkX,X:XMX8X8X.XG n G N.N.m.m j =XlX8XdXdX6X8X_.2.W.wX=XN S s z .X8X>X6.<.<.5.qX.Xz z F F m A A c >XmXrXqXb.",
"v.>XjX7X[ J.8X7X|.8X0XkXbXy.tX8X~.W.C M l %.-.$.b ; &XkX^.].dX9X8XwX}.8.gXL.; M u z U wXqX^.!.>X!.qXQ.G z M F S @.^ x J.eX^.T.m.",
"m.T.~.pXP.} kX^.'. XqXkXdXe.~. X+X{ 4 z z u #.d M x %X^.|.pX+XT.6X0X}.6.0X;X5 n b z I qXT.eX8X(.5XfXe.C ~ m V C.C.+.q L.qX.X8Xg ",
"k.8X.X'.*X} NXd.2.G.0XkXdX%XwXs. XT k z N k y l n l *X|. X^.^.4XwX>X7.W.).L.4 F z j U 5X9X9X=X!.Y.8X( j [ M z #.n.i 6 &XpX'.~.& ",
"g.!.8.d.Y  .xXQ.4.!.0X8X7XW !.u.Q.: ; F U k k c k y V.G.t.'.Q.U.3XP.>.Y.>XY @ F b 4 - &X=X=X3XU.(.T.d k H m m g $.M ; Y ^.d.}   ",
"h.g.V < O | jX5X7.qXwX7X8Xg g p <   . o . o o < e %.&.r >.[.s.E P 0.'.Q > .   o . o   < 7 , 2 5 > d c.m z C m u u M 4 o % * o   ",
"k.{.m.v.= } rX7X5X`.5X7XwXg ;.C.E   ) 7X3.6.>.u.l.;.N.bXcX{.s.C.b.s.KXnXe.1.6.3.8.(   I G ! ! A G e.@.m z z M B z F 5 7 qXqX~   ",
"=.,.&.;.v | gX0X8XwXL.6X_.w.q.n.w.c nXxXd.f.s.a.}.aXaXBXDX#XD.&.b.,.cXBX.Xz.f.a.p.hXP [ J.Y.' :Xe.J.w.A z z F k m F q 9XDXSXnX% ",
"O M =.r c | 8X8X8XwXJ.qX}.u H s w I 5X8X7.<.<.1.^.1X1XlX8XI.n S s c K.uX!.<.3.<.F.0Xb z m E N.;.=.m ,.z m m k B z m x -XCX0X8X'.",
". n Z b 6 | jX6X8X8X_.|.a.t m Z b x 7X7X7X^.7X:X0X%XP.gX>Xe.b C A j ~ fX8X~.,X^.^.wXx z M v &.-.@.k 5.F N F l z z B , &XwX_.,X[.",
"X c l F 6 K.gX0XT.wX].d.2.x m l M c 5XY.0X8X5X3X8XP.*X^.hXI.v l n j ( _.3XwX6X(.).wXc k k k y $.V k 7.G n q.w.E m m q .._.].^.{.",
"X N m m j ( yX6X>X6Xs.u.3., m z k V T.9X0XT.~.Y.6XI.*X X^.I.l M m j / ).qX>X~.Y.=X<Xx k m b l d n k ,.G k i -.c.z F q &X.X}.).g.",
". 5 z b = 8 =X=X*XY.2.<.>.% z k j s.W.=XU.U.U.L.U.y.M.E.,.}.>.4 l - 5 ;X=XR.U.&X=X| o k m k j c j l p.D 4 s $.#.h z o I G.<.W.f.",
". X X o .   : = - 2 * < %   o O 6.KX3.d g v.w.9.'.i.*.+.r.JXd.r 0 X   > = > 1 - 1 o   o X . = o < @.h.s.u 3 X & & o X + * 8.h.k.",
"  o.MXyXdX XuXgX2 @ m.n.x . yX.Xh.[.f.k.iX&.M.W.Q.W.I.e.E.{.'.e.e.} ( ( ( $ > bXyXbX XyXMXo.  w.n.r.g.IXcX8.5.9.2.}.1 & m.Z.XXk.",
"o kXxXCXvX'.xXSX-XB ;.b.! { ZX^.u.p.a.u.dXoXC H J J H [ F Q.D.] J.H.E.w...b *XzXCXDX}.dXVXMXP q.n.f }.zX+Xp.a.a.a..X;XN =.%.^ ;.",
"* qX6X8X7X2.E.eXL.j q.r x ~ 8X5X6.6.5.5.wX].z b H M k E C Z b m A =.N.b.G 4 L.eX0X8X9.7.8X9Xc G @.v F.8X6XE.<.<.<.^.K.k ^ s b &.",
"v.5X9XqX0X'.y.8XK.4 B Z k ! rX9X7X>X!.!.wXG.m F m z =.$.J A Z m z @.x.%.z 9 } 8X5X8X.X2.7X5Xx m l z 9.dX6XqX,X7X!.nX} j B l z $.",
"c.qX=X7X6XG.7.8XL.j n m k B 8XT.qXwX=X).fXG.F ] M u C.n.p Z V k k l *.s n j P.6X).wX!.4.>X0Xx k k z e.7XY.8X5X5X>X8XL.4 z m F r.",
"&.*X5XqX=X7.Y.6X| 4 B k k Y >X8X5XT.T.T.>XG.z } m v *.b.w A V z m k v v z Z %X3X8X).F.W.6XT.; F z n ; =X9X8XT.=X=X`.o.4 F k C g.",
"k.F.T.&XK.e.&XT.5 = c c ; & L.Y.&X=XJ.&XP.'.z F m z g s N E d k k j j k j d w.&X;XL.t.L.*X/ o j k j o / ;XR.U.J.U.&X7 = z 4 S h.",
"JXs.- : : : = 1 + X o $ .   - > $ : : # 5.[.z M m m y Z m p x.r s g s g g #.b., = > = : ; o + @ O o   o > 2 : : 2 =   X o . >.KX",
"h.'.[ H.e.} J L.= I ZXAX%Xo yXAX) & MXmXvXs.z m z m z C M u iXNXNXiX&.m.Z.=.N.mX}.p.d.i.s.V.3 nXNXMXX &XhXu.d.i.u..X5 I ZXHXY.p.",
"{.' H L.e.y.r.' b 4XVXAXnXO.mXVXkX&XmXCXDXG n m m n z m m W bXBXCXMXq.w.$.W aXxX9.u.a.a.9.qX%XzXCXCX%XwXfX8.u.p.a.}.*X<XAXVXMX& ",
"k.m m A ;.m.b.z j U.mX6X~.~ mXeXU.[ mX8X5XY k m z N z m k i pXlX7X1XQ C d j *XeX1X6.6.5.W.9XR zXrX)./ 5X8XW.5.5.5.,X&XR.xX7X-X# ",
"*.z m b *.x.$.l ; | 8X_.Y.~ 6XdXU.{ 6X7X_.I k z A l z z N Q :XtX_.1XZ M F 4 | 8X)._.9X~._.5XT 5X7X^.R >XqX7X>XqXY.fX| L.wX7X!.o ",
"&.B j z w s y M j &X8X.XqX/ ).|.~.o.7X}.dXU z z w.;.w.k k l *X^.|.5Xj m m 6 %X).5XqX4X3XqX>X{ qX.XdX{ >X~.8X9X>XT.fXJ.| 7X].).# ",
"=.k z C n v b M ; O.pXp.=XY pX'.&XT @Xd.5XL z k =.x.&.k M ; ;X].s.*X> G B ; ) 5XwXT.3XT.~.=XU fXp.^.T &X5X).5XT.=X9X~ &X|.d.-XO ",
"x.d n j ; k j c o 4 t.<.U $ e.5.P # H.<.^ o ; l s ` s e j . Y ,.3.b o c c @ > U.J.J.L.| &XY # K.3.e.@ U &XJ.L.| %XL.> 8 7.<.U   ",
"&.x.@.$.a . o X   . & o o   o & .   o & *   . O o O . X X + o % % .   X . . X o O O o @ O o   o O %   o O @ O @ O & . X % % O . "
};
